<svg width="1440" height="1024" viewBox="0 0 1440 1024" fill="none" xmlns="http://www.w3.org/2000/svg">
<path d="M521.1 562.3L525.6 547.2C526.4 544.4 528 541.8 530.1 539.7L587.2 482.1C587.6 481.7 588.2 481.4 588.8 481.4C589.4 481.4 590 481.6 590.4 482.1L602.8 494.6C603.7 495.5 603.7 496.9 602.8 497.8L545.7 555.4C543.6 557.5 541 559.1 538.2 559.9L523.2 564.4C522.6 564.6 522 564.4 521.5 564C521.1 563.5 520.9 562.8 521.1 562.3ZM610.9 467.6L617 473.8C619.6 476.4 619.6 480.7 617 483.3L609.5 490.8C609.1 491.2 608.5 491.5 607.9 491.5C607.3 491.5 606.7 491.3 606.3 490.8L594 478.3C593.1 477.4 593.1 476 594 475.1L601.5 467.6C602.7 466.3 604.4 465.6 606.2 465.6C608 465.6 609.7 466.3 610.9 467.6Z" fill="black"/>
<path d="M833 506.7C832.6 506.3 832 506 831.4 506C830.8 506 830.2 506.2 829.8 506.7L827.5 509C826.8 509.7 826.6 510.7 827.1 511.6L835.7 528.8C836 529.5 835.9 530.3 835.4 530.9L822.8 543.4C821.3 544.9 819.1 545.6 816.9 545.3L812 544.5C810.9 544.3 809.8 544.7 809.1 545.4L807.3 547.2C806.4 548.1 806.4 549.5 807.3 550.4L825.3 568.4C825.7 568.8 826.3 569.1 826.9 569.1C827.5 569.1 828.1 568.9 828.5 568.4L830.3 566.6C831.1 565.8 831.4 564.7 831.2 563.7L830.4 558.9C830 556.8 830.7 554.6 832.3 553L844.9 540.4C845.4 539.9 846.3 539.7 847 540.1L864.2 548.7C865.1 549.1 866.1 549 866.8 548.3L869.1 546.1C870 545.2 870 543.8 869.1 542.9L833 506.7ZM916.4 456.7L896.4 463.3C895.1 463.7 893.9 464.5 892.9 465.5L847.9 510.3C847 511.2 847 512.6 847.9 513.5L851.1 516.7C851.8 517.4 852.9 517.4 853.6 516.8L883.1 490.7C883.7 490.2 884.5 490.2 885.1 490.8C885.6 491.3 885.7 492.2 885.2 492.8L859 522.2C858.4 522.9 858.4 524 859.1 524.7L862.3 527.9C863.2 528.8 864.6 528.8 865.5 527.9L910.5 483.1C911.5 482.1 912.2 480.9 912.7 479.6L919.4 459.7C919.7 458.9 919.5 458 918.9 457.4C918.1 456.7 917.2 456.4 916.4 456.7Z" fill="black"/>
<path d="M741.7 510.5V521.9L698.1 541.7V529.9L733.1 516.2L698.1 502.6V490.6L741.7 510.5Z" fill="black"/>
</svg>
