<svg width="40" height="40" viewBox="0 0 40 40" fill="none" xmlns="http://www.w3.org/2000/svg">
<path d="M20 0C9 0 0 9 0 20C0 31 9 40 20 40C31 40 40 31 40 20C40 9 31 0 20 0Z" fill="black"/>
<path fill-rule="evenodd" clip-rule="evenodd" d="M18.8 13C18.8 14.1 19.9 15 21 14.9C22.1 15 23.1 14.1 23.2001 13C23.2001 11.9 22.1 11 21 11.1C19.9 11 18.9 11.9 18.8 13ZM20.1 25.9L21.9 19.2001V18.7001C21.9 17.7001 21 16.8 20 16.8H18.2C17.9 16.8 17.6 17.1001 17.6 17.4V17.6001C17.6 17.9 17.8 18.1001 18 18.2001C18.6 18.4001 19 19.2 18.8 19.8L17 26.5C16.9 26.7001 16.9 26.8 16.9 27C16.9 28 17.8 28.9 18.8 28.9H20.7C21 28.9 21.3 28.6 21.3 28.3V28.1C21.3 27.8001 21.1 27.6 20.9 27.5C20.3 27.3 19.9 26.5 20.1 25.9Z" fill="white"/>
</svg>
