<svg width="1440" height="1024" viewBox="0 0 1440 1024" fill="none" xmlns="http://www.w3.org/2000/svg">
<path d="M221 537.9H200V429.9H221V537.9Z" fill="white"/>
<path d="M277.1 458.9C276 449.5 272.6 445 266.7 445C261.4 445 257.6 449 257.6 454.7C257.6 460.4 260.2 464.1 269.1 471.7L279.1 480.1C290.9 490 295.5 498.1 295.5 509.2C295.5 528 283 540.6 264.3 540.6C247.6 540.6 236.8 530.7 234 513.1L253.4 508.4C255 517.5 259.1 522.2 265.1 522.2C270.4 522.2 274.5 517.7 274.5 511.8C274.5 506.5 271.4 501.9 263.2 495L252.7 486.1C249 483 245.4 479.1 242.2 474.8C238.3 469.6 236.5 463.8 236.5 456.5C236.5 438.7 248.2 427.2 266.3 427.2C282.2 427.2 291.6 435.5 295.3 452.6L277.1 458.9Z" fill="white"/>
<path d="M418.4 431.4L445.2 537.3L472.3 431.4H508.2V598.7H478.1V496.7L457.8 578.7H432L411.9 496.7V598.8H381.8V431.4H418.4Z" fill="white"/>
<path d="M570.9 598.8H538.3V431.4H570.9V598.8Z" fill="white"/>
<path d="M697.1 498.9V516C697.1 547.6 694.8 562.7 688.1 577.5C680.8 593.3 665 603.1 647 603.1C630.2 603.1 614.4 594.1 607.1 580.3C599.6 566 596.1 546.4 596.1 518.3C596.1 487.2 600.4 464.4 608.9 449.1C616.2 435.3 631.5 427.3 649 427.3C673.8 427.3 689.1 439.8 693.4 463.2L663.8 474C662 461.7 656.8 454.9 649 454.9C635.5 454.9 629.7 473 629.7 514.9C629.7 560.1 634.5 575.6 647.8 575.6C653.1 575.6 657.3 572.3 660.3 565.8C663.3 559.3 663.8 553.5 663.8 525.9H644.5V499.1H697.1V498.9V498.9Z" fill="white"/>
<path d="M754 497.2H779.8V431.5H812.4V598.8H779.8V524.3H754V598.8H721.4V431.4H754V497.2Z" fill="white"/>
<path d="M917.8 459H891.7V598.7H859.1V459H833.3V431.4H917.8V459Z" fill="white"/>
<path d="M971.3 598.8H938.7V431.4H971.3V598.8Z" fill="white"/>
<path d="M1071.8 431.4V459H1034V498.9H1071.9V526H1034V571.2H1071.9V598.8H1001.4V431.4H1071.8Z" fill="white"/>
<path d="M1140.1 431.4C1176.5 431.4 1194 447.2 1194 480.1C1194 501.4 1184 516.7 1166.7 522L1198.1 598.8H1161.2L1132 522V598.8H1099.4V431.4H1140.1ZM1137.6 503.2C1152.9 503.2 1160.2 495.9 1160.2 480.6C1160.2 465.5 1152.9 458.3 1137.6 458.3H1132.1V503.2H1137.6V503.2Z" fill="white"/>
<path d="M291 580.6H200V598.6H291V580.6Z" fill="white"/>
</svg>
