<svg width="1440" height="1024" viewBox="0 0 1440 1024" fill="none" xmlns="http://www.w3.org/2000/svg">
<path d="M566.1 579.9C563.1 582.9 559.5 585.2 555.2 586.8C550.9 588.4 546.2 589.2 541 589.2C532 589.2 524.9 586.7 519.8 581.8C514.7 576.8 512.1 569.3 512.1 559.3V485.6H489.9V476H512.1V448.2L523.2 445.1V476H565V485.5H523.3V557.7C523.3 564.7 525 570 528.3 573.6C531.6 577.2 536.5 579 542.8 579C550.2 579 556.6 576.3 562.1 570.8L566.1 579.9Z" fill="black"/>
<path d="M671.3 484.5C679.1 491.6 683 501.7 683 514.9V587.1H671.9V518.5C671.9 506.8 669 498 663.1 492.2C657.3 486.4 649.4 483.4 639.4 483.4C632.3 483.4 625.7 485.1 619.6 488.4C613.5 491.7 608.7 496.5 605.1 502.7C601.5 508.9 599.7 516.2 599.7 524.5V587.1H588.6V424.9H599.7V498C603.3 490.2 608.6 484.2 615.8 480C623 475.9 631.2 473.8 640.6 473.8C653.2 473.8 663.5 477.4 671.3 484.5Z" fill="black"/>
<path d="M819.3 578.2L818.6 587.1C815.9 588.6 812.3 589.3 807.7 589.3C802.5 589.3 798.3 587.9 795 585.1C791.7 582.3 789.9 577.4 789.4 570.4C786 576.3 780.5 580.9 773 584.3C765.4 587.6 757.5 589.3 749.2 589.3C738.2 589.3 729.5 586.9 722.9 582C716.3 577.1 713 570.2 713 561.1C713 543.9 727.1 532.8 755.2 527.8L789.2 521.8V512C789.2 503.1 786.6 496.2 781.3 491.1C776 486.1 768.6 483.5 759 483.5C741.4 483.5 729.5 491.3 723.5 507L715.1 500.8C718.4 492.1 723.8 485.4 731.3 480.7C738.9 476 748.1 473.7 759.1 473.7C772 473.7 782.1 476.8 789.4 483.1C796.7 489.4 800.4 498.5 800.4 510.5V568C800.4 575.8 803.8 579.8 810.6 579.8C814.3 579.7 817.2 579.2 819.3 578.2ZM768.6 576.3C774.5 574.2 779.4 571 783.4 566.8C787.3 562.6 789.3 557.5 789.3 551.6V530.9L758.9 536.5C746.9 538.7 738.2 541.8 732.7 545.8C727.2 549.8 724.5 554.9 724.5 561.1C724.5 567 726.8 571.6 731.4 574.8C736 578 742.4 579.6 750.5 579.6C756.6 579.5 762.7 578.4 768.6 576.3Z" fill="black"/>
<path d="M924.6 484.5C932.4 491.6 936.3 501.8 936.3 515.1V587.1H925.2V518.7C925.2 506.9 922.3 498 916.5 492.3C910.7 486.5 902.8 483.6 892.7 483.6C885.6 483.6 879 485.2 872.9 488.5C866.8 491.8 862 496.5 858.4 502.7C854.8 508.9 853 516.2 853 524.5V587.1H841.9V476H851.9L852.3 498.4C855.9 490.4 861.3 484.3 868.6 480.1C875.9 475.9 884.3 473.8 893.8 473.8C906.6 473.8 916.9 477.4 924.6 484.5Z" fill="black"/>
</svg>
