<svg width="1440" height="1024" viewBox="0 0 1440 1024" fill="none" xmlns="http://www.w3.org/2000/svg">
<path d="M536.5 562.9C536.4 563.2 536.2 563.4 536.1 563.7C536 564 535.8 564.2 535.7 564.5C536.8 564.8 537.6 564.6 538 564.1C538.4 563.6 538.5 562.6 538.4 561.1L536.5 562.9Z" fill="black"/>
<path d="M553.5 404.8C552 403.1 550.3 401.6 548.5 400.4C546.6 399.1 544.6 397.8 542.4 396.5C538.7 394.4 534.8 392.9 530.6 392.1C526.4 391.3 522.2 390.4 518 389.4C516.4 389 514.7 388.8 512.9 388.7C511.1 388.6 509.4 388.6 507.6 388.6C506.2 388.5 504.9 388.5 503.5 388.7C502.2 388.9 500.8 388.8 499.4 388.4C497.6 388 495.8 388 493.9 388.3C492 388.6 490.2 388.9 488.4 389.2C484.9 389.8 481.4 390.6 477.9 391.4C474.4 392.2 470.9 393 467.4 393.8C466.4 394.1 465.5 394.3 464.7 394.6C463.9 394.9 463 394.7 462 394C461.7 393.7 461.5 393.7 461.2 393.8C460.9 393.9 460.7 394.1 460.4 394.2C459 394.7 457.6 394.5 456 393.6C454.9 392.6 453.6 392.4 452.2 392.9C450.8 393.5 450 394.4 449.7 395.8C449.4 397.6 448.9 398.9 448 399.9C447.1 400.8 445.8 401.6 444 402.1C441.1 403.1 438.2 404.2 435.3 405.4C432.4 406.6 429.5 407.8 426.6 408.9C424.8 409.7 423 410.4 421.2 411.1C419.4 411.8 417.6 412.6 415.8 413.7C412.6 415.5 409.5 417.2 406.4 418.9C403.3 420.6 400.2 422.3 397 424.1C394.2 425.9 391.5 427.6 388.9 429.2C386.3 430.8 383.5 432.5 380.6 434.3C379.3 434.9 378.2 435.8 377.3 436.9C376.4 438 375.1 438.8 373.6 439.2C373.3 439.3 373.1 439.8 372.8 440.5C371.8 442.8 371.5 444.5 372 445.7C372.5 446.9 373.1 448.5 373.9 450.5C374.5 452 375.2 453.5 376 454.9C376.8 456.4 377.5 457.8 378.3 459.3C378.6 459.9 378.9 460.3 379.2 460.4C379.3 460.5 379.8 460.6 380.7 460.6C381.6 460.6 382.5 460.6 383.4 460.5C384.3 460.4 385.2 460.3 386 460.1C386.8 459.9 387.4 459.8 387.6 459.6C389 458.3 390.4 457.1 392 455.9C393.5 454.7 395 453.5 396.4 452.2C396.7 451.9 397 451.7 397.4 451.5C397.8 451.3 398.3 451.1 398.6 450.8C401.6 449.3 404.5 447.7 407.2 446C409.9 444.3 412.7 442.6 415.6 440.8C416.2 440.4 416.8 440 417.4 439.6C418 439.2 418.6 438.8 419.2 438.6C421.1 437.7 423 436.9 424.8 436C426.6 435.2 428.4 434.3 430.2 433.3C431 432.9 431.7 432.5 432.4 432C433.1 431.5 433.9 431.2 435 431.1C435.3 431.1 435.5 431 435.8 430.7C436.1 430.4 436.3 430.2 436.6 429.9C436.9 429.6 437.1 429.4 437.4 429.2C437.7 429 438 428.7 438.5 428.3C438.5 428.7 438.1 429.8 437.4 431.6C436.6 433.4 435.9 435.5 435 437.7C434.2 439.9 433.4 441.9 432.6 443.7C431.8 445.5 431.5 446.4 431.5 446.5C431 448 430.7 448.9 430.7 449.1C430.7 449.3 430.7 449.4 430.8 449.3C430.9 449.2 430.9 449.3 430.9 449.5C430.9 449.7 430.6 450.5 430.1 452.1C429.5 454.1 428.5 456.8 427.3 460C426 463.3 424.7 466.7 423.4 470.1C422.1 473.6 420.8 476.9 419.6 480.2C418.4 483.5 417.4 486.1 416.7 488.1C414.7 494.3 412.7 500.4 410.7 506.6C408.7 512.7 406.9 518.9 405.1 525.2C403.7 529.6 402.5 534.1 401.6 538.7C400.7 543.3 399.6 547.9 398.5 552.6C397.5 557.4 396.7 562.2 396 567C395.4 571.8 394.9 576.6 394.7 581.4C394.4 583.5 394.4 585.8 394.7 588C395 590.3 395.2 592.5 395.5 594.6C395.5 596.2 396 597.6 396.9 598.6C397.8 599.6 398.8 600.7 399.6 601.8C401.5 604.3 404.1 605.5 407.4 605.4C407.3 604.9 407.2 604.4 407.2 604C407.2 603.6 407.1 603.2 406.8 603C406.2 602.5 405.9 602 406 601.5C406.1 601 406.1 600.4 406 599.8C405.9 599 405.7 598.3 405.6 597.6C405.5 596.9 405.3 596.2 405 595.6C404.9 595 404.8 594.3 404.7 593.7C404.6 593.1 405 592.5 405.9 592C406.2 591.7 406.3 591.5 406.4 591.1C406.5 590.8 406.6 590.5 406.7 590.2C406.8 589.8 406.9 589.4 406.8 589.1C406.7 588.7 406.8 588.3 407.1 588C407.5 585.6 408 583.1 408.8 580.6C408.8 580.5 408.8 580.4 408.7 580.2C410.8 576 411.9 571.4 411.9 566.8C412.5 565.5 413.2 564.2 414.1 563C414.2 562.9 414.3 562.5 414.3 561.9C414.8 559.6 415.3 557.4 415.7 555.1C416.1 552.8 416.7 550.6 417.5 548.5C418.5 545.8 419.5 543.2 420.4 540.6C421.3 538 422.4 535.5 423.7 532.9C424.7 530.9 425.5 528.8 426 526.7C426.5 524.6 427.4 522.7 428.8 520.9C429.4 520.1 429.8 519.2 430 518.2C430.2 517.1 430.4 516.1 430.7 515.1C431 514.1 431.3 513.1 431.6 512.3C432 511.4 432.5 510.5 433.1 509.7C433.4 509.2 433.7 508.7 434.1 508.2C434.5 507.7 434.7 507.1 434.6 506.5C434.6 505.1 434.9 503.9 435.4 502.7C435.9 501.6 436.3 500.3 436.5 498.9C436.6 497.9 436.9 497 437.4 496.2C437.8 495.4 438.3 494.5 438.6 493.5C438.9 492.7 439.1 492 439.3 491.2C439.5 490.4 439.7 489.8 440 489.1C440.1 488.8 440.2 488.6 440.2 488.3C440.2 488 440.3 487.8 440.4 487.5L442.2 485.7C442.8 485.1 442.7 484.3 442.1 483.3V483.1C442.1 483 442.1 482.9 442.2 482.9C442.3 482.9 442.3 482.8 442.3 482.7C443.3 482.2 443.9 481.5 444.1 480.7C444.3 479.9 444.5 479 444.8 478.1C445.3 477 445.7 475.8 446.1 474.5C446.5 473.2 447.4 472.3 448.7 471.7C449.3 471.4 449.7 471.1 449.7 470.6C449.8 470.1 449.6 469.5 449.2 468.9C448.7 467.9 448.5 467.2 448.5 466.9C448.6 466.6 449.1 466 450.1 465.3C450.6 464.9 451.1 464.5 451.7 464C452.3 463.5 452.5 463.1 452.4 462.9C452.1 461.8 452.2 460.8 452.7 460C453.1 459.2 453.6 458.4 453.9 457.6C454.9 455.5 455.8 453.2 456.5 451C457.3 448.7 458.5 446.7 460.3 444.9C460.6 444.6 460.7 444.3 460.9 444C461 443.6 461.2 443.3 461.5 443.1C462.1 441.5 462.8 439.9 463.6 438.4C464.4 436.9 465 435.3 465.7 433.7C466 433.1 466.5 431.7 467.4 429.6C468.3 427.5 469.3 425.3 470.3 423.1C471.4 420.8 472.5 418.8 473.6 417C474.7 415.2 475.7 414.3 476.6 414.2L476.8 414C477.2 413.5 477.7 413.1 478.4 413C479.1 412.8 479.9 412.7 480.8 412.5C481.7 412.4 482.5 412.3 483.3 412.3H485.2C486 412.2 486.7 412.1 487.6 412.1C488.4 412.1 489.3 412 490.2 411.9C492.2 411.6 494.2 411.3 496.1 411C498 410.7 499.9 410.3 501.8 410.1C503.9 409.8 506.1 409.7 508.3 409.6C510.5 409.5 512.7 409.4 514.8 409.1C516.4 408.8 518 408.5 519.6 408.2C521.2 407.8 522.8 407.9 524.6 408.6C525.4 408.9 526 408.8 526.7 408.4H526.8C526.8 408.5 526.7 408.6 526.7 408.6C525.4 410.7 524.1 412.9 522.7 415C520.3 419 517.9 423.1 515.5 427.1C513.1 431.1 510.7 435.2 508.3 439.2C506 442.9 503.7 446.6 501.5 450.3C499.2 454 497 457.7 494.9 461.4C492.5 465.4 490.1 469.5 487.9 473.7C485.6 477.9 483.3 482 481.1 486C479.8 488.1 478.6 490.3 477.5 492.5C476.4 494.7 475.3 496.9 474.3 499.2C473.5 500.7 472.8 502.3 472.2 503.9C471.6 505.5 470.9 507.2 470.3 508.8C468.9 512.5 467.5 516.1 466.1 519.6C464.7 523.1 463.5 526.7 462.5 530.4C461.5 533.7 460.6 537.1 459.9 540.5C459.2 544 458.5 547.3 457.9 550.6C456.4 557 456.3 563.3 457.5 569.5C458 571.6 458.6 573.7 459.4 575.7C460.2 577.7 461.5 579.3 463.4 580.7C464.5 581.3 465.4 582.2 465.9 583.3C466.7 585.2 467.9 586.3 469.7 586.5V587.1C470 587.1 470.1 587.1 470.2 587C470.3 586.9 470.4 586.9 470.7 586.9C471 586.8 471.2 586.6 471.6 586.5C471.9 586.4 472.2 586.2 472.5 586.1H472.7C473.7 585.5 474.7 584.8 475.5 584C476.4 583.2 477.3 582.6 478.3 581.9V581.1C478 578.2 478.6 575.6 479.8 573.4C481.1 571.2 482.5 569 484 566.9C485.2 565.4 486.4 563.9 487.7 562.5C489 561.1 490 559.6 490.7 558C491.2 556.6 491.7 555.3 492.2 554C492.7 552.7 493.4 551.5 494.3 550.4C495.7 548.8 496.9 547.1 498.1 545.5C499.2 543.9 500.4 542.2 501.7 540.4C503.1 538.6 504.5 536.8 505.8 535C507.2 533.2 508.6 531.4 509.9 529.6C510.9 527.9 512.6 525.8 514.4 523.5C515.1 522.4 515.9 521.2 516.6 520C517.4 518.8 518.1 517.6 518.9 516.5L518.1 516.1C515.8 518.9 513.6 521.6 511.3 524.3C509 527 506.8 529.8 504.5 532.7L503.4 531.6C509.5 523.3 515.7 515.1 522.2 507.2C528.7 499.3 535.5 491.5 542.7 483.9C541.2 484.4 539.8 485 538.6 485.7C537.4 486.4 536.2 487.4 535.2 488.8C534.2 490.3 533 491.7 531.5 493.1C530 494.4 528.6 495.8 527.2 497.2C525.3 499.3 523.5 501.5 521.6 503.7C519.7 505.9 517.9 508.1 516.2 510.2C515.8 510.7 515.5 511.3 515.3 512C515.1 512.7 514.8 513.3 514.5 513.9C514.2 514.5 513.8 515 513.3 515.4C512.8 515.8 512.1 516.1 511.1 516.1C511.1 517.9 510.5 519.1 509.4 519.9C508.3 520.7 507.3 521.5 506.4 522.6C505.3 523.9 504.2 525.2 503.2 526.5C502.2 527.8 501.4 529.4 500.7 531.1C500.1 532.5 499.2 533.8 498 535.1C496.8 536.4 495.6 537.6 494.3 538.9C492.2 540.9 490.3 543.1 488.9 545.5C487.4 547.9 486.2 550.5 485.2 553.3C485.2 553.6 485 553.7 484.7 553.9C484.4 554 484.1 554.2 483.8 554.5C482.4 556 481.1 557.6 479.8 559.1C478.5 560.7 477.3 562.3 476.2 563.9C475.6 564.7 475 565.4 474.6 566.3C474.2 567.1 473.7 567.9 473.2 568.7V568.5C473.5 567.9 473.6 567.2 473.6 566.5C473.6 565.8 473.7 565.1 474 564.5C474.1 563.9 474.3 563.3 474.5 562.8C474.7 562.3 474.8 561.7 475 561.1C475.3 559.8 475.5 558.6 475.7 557.4C475.9 556.2 476.1 555 476.4 553.7C476.5 552.9 476.7 552.2 476.9 551.4C477.1 550.6 477.3 549.9 477.6 549.1C478.1 549 478.7 548.2 479.3 546.6C479.9 545.1 480.5 543.4 481.1 541.7C481.7 539.9 482.1 538.3 482.5 536.7C482.9 535.1 483 534.2 482.9 534C483.7 532.6 484.3 531.4 484.9 530.4C485.5 529.4 486.1 528.4 486.7 527.4L486.1 527.2C485.8 527.3 485.3 527.6 484.5 528.1C484.4 528 484.3 527.8 484.2 527.7C484.1 527.6 484 527.4 483.9 527.3C484.2 527 484.4 526.8 484.6 526.4C484.8 526.1 485 525.9 485.3 525.9C486.2 526 486.8 525.9 487 525.4C487.3 525 487.5 524.5 487.8 524C488.1 523.4 488.3 522.8 488.7 522.4C489 522 489.3 521.4 489.4 520.8C489.5 520.2 489.6 519.5 489.5 518.9C489.5 518.5 489.5 518.1 489.4 517.7C489.6 517.4 489.7 517.1 489.9 516.8C489.9 516.7 490 516.7 490 516.6C490.1 516.6 490.3 516.6 490.4 516.6C490.7 516.5 491 516.5 491.3 516.5C491 516.1 490.7 515.7 490.6 515.3C491 514.4 491.4 513.5 491.8 512.5C492.2 512.2 492.6 512 493.1 511.7C493.1 511.3 493 510.8 492.8 510.2C492.8 510.1 492.9 510 492.9 509.9H493C493.1 510 493.3 510 493.4 510C493.7 509.6 493.9 509.3 494.3 509C494.6 508.7 494.9 508.3 495.2 508C495.5 507.7 495.6 507.4 495.6 507.1C495.6 506.7 495.7 506.4 495.8 506.2C496.9 504.1 498 502 499.1 500C500.2 498 501.4 496 502.8 493.9C503.8 492.4 504.6 490.7 505.3 489C505.9 487.2 507.1 485.8 508.9 484.8C509.2 484.5 509.6 484.2 510.2 483.8C510.8 483.4 510.8 482.6 510.2 481.6C510.1 481.6 510.1 481.5 510.3 481.2C510.5 480.9 510.6 480.8 510.8 480.6C511.6 479.3 512.4 478.1 513.4 477C514.4 475.9 515 474.6 515.3 473.2C515.7 472.8 515.8 472.6 515.7 472.6C516.7 472.2 517.4 471.6 517.7 470.7C518 469.8 518.4 468.9 518.7 468.1C519.3 467 520.3 465.8 521.7 464.7C524 462.8 525.3 460.6 525.7 458.1C525.7 457.8 525.8 457.7 525.9 457.5C526 457.4 526.2 457.2 526.3 456.9C526.7 456.4 527.1 455.9 527.5 455.5C527.9 455.1 528.3 454.6 528.5 454.1C528.9 453.5 529.1 452.8 529.3 452.2C529.4 451.6 529.9 451.1 530.8 450.9C531.1 450.8 531.2 450.5 531.4 450C531.5 449.6 531.7 449.2 532 449C532.8 448.2 533.4 447.7 533.9 447.5C534 447.2 534.2 447.2 534.5 447.2C534.8 447.3 534.9 447.2 535.1 446.9C535.9 445.9 536.6 444.9 537.4 443.9C538.2 442.9 538.9 441.9 539.7 440.9C541.1 439.1 542.4 437.4 543.7 435.6C545 433.8 546.2 432.1 547.5 430.3C548 429.5 548.4 428.8 548.7 427.9C549 427.1 549.4 426.2 549.7 425.3C549.8 425 550 424.8 550.2 424.5C550.4 424.2 550.6 424 550.9 423.7C551.2 423.4 551.5 423.2 551.8 422.9C552.2 422.6 552.5 422.4 552.7 422.1C553.6 420.3 553.8 418.7 553.3 417.1C553.1 416.5 552.9 415.9 552.7 415.3C553 415.4 553.2 415.6 553.5 415.7C553.8 415.8 554 415.9 554.2 415.9C554.4 415.9 554.8 411.6 555.1 411.7C555.2 411.7 555 416.2 555 416.2C555.4 412.3 554.8 408.4 553.5 404.8ZM418.1 415.2C418.2 414.9 418.4 414.7 418.7 414.6C419.1 414.5 419.7 414.3 420.3 414.2C420.5 414.1 420.7 414.1 420.9 414C420 414.5 419 414.8 418.1 415.2ZM436.3 407.5C436.2 407.6 436.1 407.6 436.1 407.7C435.7 407.8 435.3 407.9 434.9 408C435.5 407.8 436.1 407.5 436.7 407.2C436.9 407.1 437.1 407 437.3 407C437.1 407.1 436.9 407.2 436.7 407.2C436.6 407.3 436.4 407.4 436.3 407.5ZM513 392.4C511.3 392.6 509.3 392.1 507.3 391.8C507.8 391.7 508.3 391.7 508.8 391.6C510.2 391.3 511.6 391.3 513 391.5C513.8 391.6 514.6 391.7 515.3 391.9C514.6 392.1 513.9 392.3 513 392.4ZM522.6 393.8C521.8 393.7 521.2 393.2 520.5 392.7C521.8 393 523 393.3 524.2 393.7C523.7 393.7 523.1 393.8 522.6 393.8ZM459 549.9C458.3 549.7 458.3 549.1 458.9 548.3C459.1 547.7 459.2 547.2 459.4 546.8C459.2 547.8 459.1 548.8 459 549.9ZM461.7 536.3C461.6 536.3 461.6 536.2 461.7 536.3C461.7 536.2 461.7 536.2 461.8 536.1C461.8 536.2 461.7 536.2 461.7 536.3ZM526.9 403.3C526.8 403.3 526.7 403.2 526.6 403.2C526.7 403.1 526.7 403.1 526.8 403.1C526.9 403.1 526.9 403.1 526.9 403.3C527 403.3 527 403.2 526.9 403.3Z" fill="black"/>
<path d="M436.7 407.2C436.9 407.1 437.1 407 437.3 407C437.1 407.1 436.9 407.1 436.7 407.2Z" fill="black"/>
<path d="M579.7 486.3C580.5 485.5 581.2 484.6 582 483.7C582.5 483.1 583.1 482.5 583.9 481.9C584.7 481.3 585.3 480.7 586 480C586.6 479.3 587.1 478.6 587.4 477.7C587.7 476.9 587.7 475.9 587.5 474.8C587.4 474.5 587.4 474.4 587.5 474.3C587.6 474.2 587.7 474.1 587.7 473.8C587.6 473.5 587.5 473.2 587.5 472.9C587.5 472.6 587.4 472.2 587.3 472C586.9 471.4 586.5 470.7 586.1 470C585.7 469.3 585.2 468.6 584.7 468C584.6 467.7 584.4 467.6 584.3 467.5C584.2 467.4 584 467.3 583.7 467C582.9 466.4 582.1 465.8 581.2 465.3C580.3 464.8 579.6 464.1 579.1 463.2C578.5 462.1 577.7 461.1 576.8 460.3C575.9 459.5 574.8 458.9 573.4 458.7C573 458.7 572.7 458.6 572.5 458.3C570.6 456.4 568.6 456.2 566.4 457.7C564.9 458.7 563.6 459.8 562.4 461.1C561.5 462.1 560.7 463.2 560 464.3C559.3 465.4 558.6 466.5 557.8 467.5C557.8 467.8 557.8 467.9 557.7 468C557.6 468.1 557.6 468.2 557.6 468.5C555.2 470.6 552.8 472.7 550.5 474.7C548.2 476.7 545.7 478.8 543.2 480.9C543.5 481.2 543.6 481.3 543.8 481.3C545.9 479.4 548.2 477.5 550.4 475.5C552.7 473.5 554.9 471.6 557.2 469.7V469.9C556.9 470.5 556.6 471.1 556.2 471.6C555.8 472.1 555.4 472.7 555.2 473.3C553.7 476.1 552.2 478.9 550.8 481.6C549.3 484.4 547.9 487.2 546.4 489.9C545 492.8 543.6 495.6 542.1 498.4C540.6 501.2 539.2 504 537.8 506.9C535.9 511.3 534.1 515.7 532.3 520C530.5 524.3 528.7 528.6 527 533.1C525.5 536.8 524.1 540.5 522.7 544.2C521.3 547.9 520 551.6 518.6 555.3C518 557.2 517.4 559.1 516.7 561C516.1 562.2 515.6 563.4 515.3 564.8C515.2 565.1 515.2 565.4 515.1 565.8C514.9 566.4 514.7 567.1 514.5 567.7C513.9 569.8 513.3 572 512.8 574.1C512.3 576.2 511.8 578.4 511.3 580.5C511.1 581.9 510.8 583.2 510.5 584.4C510.2 585.6 510 586.9 509.8 588.3C509.5 590.6 509.4 592.9 509.2 595.2C509.1 597.5 509.1 599.8 509.2 602.1C509.2 606.1 509.7 609.9 510.8 613.5C511.9 617 514.1 620.1 517.5 622.6C517.9 622.9 518.2 623.2 518.4 623.6C518.7 624 519 624.3 519.3 624.5C520.3 624.9 521.3 625.1 522.3 625.3C523.3 625.4 524.2 625.9 524.9 626.8C525 627.1 525.4 627.2 526 627.2C529.2 626.4 530.7 624.2 530.7 620.4C530 620.5 529.4 620.6 528.8 620.7C528.2 620.8 527.6 620.9 526.9 621.2C526.2 621.3 525.6 621.4 525 621.5C524.4 621.6 524 621.2 523.7 620.5C523.4 619.7 523.3 619 523.2 618.2C523.1 617.4 523 616.6 522.7 615.5C524 615.8 524.8 615.6 525 614.9C525.2 614.3 525.3 613.6 525.3 612.8C525.3 611.7 525.3 610.5 525.3 609.3C525.3 608.1 525.4 606.9 525.5 605.6C525.6 605 525.6 604.3 525.7 603.7C525.8 603.1 525.9 602.4 526 601.8C526.3 600.4 526.5 599 526.9 597.4C527.2 595.9 527.5 594.4 527.8 593H526.1C526.8 592 527.4 591.1 528 590.4C528.6 589.7 529.1 588.9 529.5 588C530.1 586.6 530.7 585.2 531.1 583.6C531.5 582.1 532 580.6 532.5 579.1C532.6 578.8 532.7 578.5 532.7 578.2C532.7 577.8 532.8 577.5 532.9 577.3C532.8 577.2 532.7 577.1 532.6 577.1C532.5 577.1 532.4 577 532.3 576.9C531.7 577.9 531 579 530.4 580C529.8 581.1 529.1 582.1 528.5 583.1C528.2 582.1 528.2 581.2 528.3 580.5L531.7 571.4C532.2 570.1 532.7 568.9 533.1 567.6C533.5 566.3 534.1 565.1 534.7 563.8C534.8 563.5 535.3 563.2 536 562.7C536.1 562.1 536.1 561.7 535.9 561.5C535.7 561.3 535.5 561.2 535.1 561.2C534.8 561.2 534.4 561.2 534.1 561.2C533.9 561.2 533.8 561.2 533.7 561.1C533.8 560.9 533.9 560.6 533.9 560.4C534.4 560.2 535 560 535.5 559.8C536.2 559.5 536.9 559.3 537.7 559.1C539.6 558.8 540.3 557.8 539.8 556.1C539.5 556.7 539.2 557.3 538.8 557.9C538.4 558.5 537.6 558.5 536.6 558C537.2 556.9 537.8 555.7 538.3 554.6C538.8 553.5 539.3 552.3 539.8 551.2C540.6 551.5 541.2 551.7 541.9 552C542.2 551.2 542.4 550.6 542.7 550C543 549.4 543.2 548.8 543.5 548.2C543.4 548.1 543.3 548 543.2 548C543.1 548 543 547.9 542.9 547.8C542.6 548.3 542.4 548.8 542 549.3C541.7 549.8 541.4 550.3 541.1 550.8C540.8 549.4 541 548.4 541.6 547.8C542.2 547.2 543 546.8 544 546.7C544.4 546.7 544.6 546.6 544.6 546.3C544.9 545.9 544.9 545.6 544.6 545.4C544.3 545.1 543.8 544.9 543.1 544.6C544.1 543.5 545 542.4 545.8 541.5C546.6 540.6 547.5 539.6 548.4 538.6C548.4 538.1 548.4 537.6 548.5 537.1C548.6 536.6 548.7 536 548.8 535.4C548.8 535.1 548.9 534.9 549.1 534.6C549.3 534.3 549.4 534.1 549.4 533.8C549.4 532.2 549.8 530.8 550.7 529.8C551.6 528.8 552.5 527.8 553.5 526.8C555.8 524.5 557.3 522.1 558.2 519.6C558.3 519.1 558.5 518.7 558.9 518.3C559.2 517.9 559.5 517.5 559.8 517C560.1 516.5 560.2 516 560.3 515.4C560.4 514.8 560.6 514.4 561 514.2C562 513.6 562.6 512.8 562.8 511.9C563 511 563.4 510.2 564 509.4C564.5 508.8 564.9 508.2 565.3 507.7C565.7 507.2 566.1 506.6 566.4 506C566.7 505.7 566.8 505.6 566.8 505.4C566.5 504.4 566.8 503.5 567.5 502.8C568.2 502.1 568.7 501.4 569.1 500.6C571.6 496.8 574.4 492.9 577.4 488.9C578.2 488 578.9 487.1 579.7 486.3ZM513.6 590.3C513.2 590.3 512.8 590.6 512.4 591.3C512.3 591.4 512.2 591.5 512.1 591.6C512.2 591 512.2 590.3 512.3 589.7C512.3 589 512.5 588.3 512.6 587.6C512.7 587.7 512.7 587.8 512.8 587.9L513.8 589.5C513.8 589.8 513.7 590.1 513.6 590.3ZM514.3 599.9C514.5 599.9 514.6 600 514.8 600.1C514.6 600.1 514.4 600.1 514.3 599.9ZM515.1 577.7C515.1 577.6 515.1 577.6 515.1 577.7C515.1 577.6 515.1 577.6 515.1 577.7ZM515.6 569.8C515.6 569.6 515.7 569.4 515.8 569.2C515.8 569.2 515.8 569.1 515.9 569.1C515.9 569.1 515.9 569.1 515.9 569.2C515.8 569.4 515.7 569.6 515.6 569.8ZM524.8 575.4C524.8 575.1 524.8 574.9 524.8 574.6C524.8 574.1 524.9 573.6 525.1 573.2C525.7 574 525.6 574.7 524.8 575.4ZM523.8 546.3C523.8 546.1 523.7 546 523.7 545.8C523.5 545.2 523.5 544.4 524 543.6C524.4 542.8 524.8 541.9 525 541C525.3 541.1 525.5 541.1 525.6 541.2C525 542.9 524.4 544.6 523.8 546.3ZM526.2 539.8C526.3 539.5 526.4 539.1 526.4 538.8C526.4 538.4 526.5 538 526.8 537.7C527.1 537.2 527.3 536.7 527.5 536.2C527.7 535.7 527.9 535.2 528.2 534.7C528.2 534.6 528.3 534.5 528.5 534.4C527.6 536.1 526.9 538 526.2 539.8Z" fill="black"/>
<path d="M663.6 541.6C662.8 541.9 662.1 542.4 661.6 543C660 544.9 658.3 546.7 656.5 548.3C654.7 549.9 652.9 551.5 651 553C650.6 553.3 650.3 553.5 650 553.9C649.7 554.2 649.3 554.5 649 554.8C648.7 554.9 648.5 554.9 648.1 554.8C647.8 554.7 647.5 554.6 647.2 554.6C647.5 554.3 647.6 554.2 647.7 554C647.8 553.9 647.9 553.7 648.2 553.6C648.3 553.5 648.5 553.4 648.6 553.3C648.7 553.2 648.9 553.1 649 553C649.8 552.2 650.5 551.5 651.4 550.6C652.2 549.8 653 548.9 653.8 548C654.1 547.7 654.3 547.5 654.5 547.1C654.7 546.8 654.9 546.4 655.2 546.1C658.1 542.9 661.1 539.8 664.2 536.6C667.3 533.4 670.4 530.2 673.4 526.9C673.3 526.6 673.1 526.5 673 526.4C672.9 526.3 672.7 526.2 672.6 526.1C672.2 526.6 671.8 527.1 671.5 527.6C671.1 528.1 670.7 528.5 670.2 528.9C668.4 530.7 666.6 532.4 664.8 534C663 535.6 661.1 537.3 659.2 538.9C657.1 541 654.9 543.1 652.8 545.1C650.7 547.1 648.4 549.1 646.2 551.2C643.6 553.5 640.9 555.7 638.3 558C635.7 560.3 632.9 562.5 630.2 564.6C629.1 565.4 627.7 566.3 626.1 567.5C624.5 568.7 622.9 569.9 621.1 571.1C619.3 572.3 617.6 573.4 616 574.5C614.4 575.6 613 576.5 611.8 577.2C609.7 578.6 607 579.7 603.9 580.5C600.7 581.3 597.9 581.5 595.4 581.2C594 580.9 592.9 580.3 592.2 579.1C591.8 578.5 591.6 577.8 591.5 577.1C591.4 576.4 591.3 575.7 591.2 575.1L590.6 574C590.3 573.1 590 572.6 589.7 572.5C588.9 571.9 588.8 571.1 589.3 570.2C589.8 569.4 589.9 568.8 589.5 568.1C588.6 566.6 588.7 565.3 589.9 564.1C590.2 564 590.4 563.7 590.7 563.2C590.8 562.6 591 561.9 591.1 561.3C591.2 560.7 591.4 560 591.7 559.4C591.4 559.2 591.1 558.9 590.7 558.7C590.3 558.5 590.4 558.1 591 557.5C591.3 557.2 591.4 557 591.5 556.8C591.6 556.6 591.7 556.4 592 556.1C592.1 555.8 592.2 555.6 592.3 555.3C592.4 555 592.5 554.9 592.8 554.7C594.2 553.9 594.8 552.9 594.5 551.7L595.6 551.1L595.8 551.3C597.4 551.7 599.6 551.8 602.4 551.7C605.2 551.6 607.4 551.3 609 550.9H609.2C609.6 550.9 610.1 550.8 610.9 550.5C612.9 549.9 614.9 549.3 617 548.7C619 548.1 620.9 547.2 622.7 545.8C622.8 545.7 623 545.6 623.3 545.6C624.2 545 625 544.4 625.9 543.9C626.7 543.4 627.5 542.8 628.3 542.2C628.9 541.7 629.5 541.2 630.1 540.7C630.7 540.2 631.3 539.7 631.9 539.2C632.7 538.6 633.5 537.9 634.4 537.3C635.3 536.7 636 536 636.7 535.4C637.6 534.4 638.4 533.4 639.1 532.3C639.8 531.2 640.8 530.4 642 529.7C642.4 529.6 642.7 529.2 642.9 528.6C643.3 527.6 643.7 526.8 644.2 526.1C644.8 525.1 645.5 524.2 646.2 523.4C646.9 522.6 647.6 521.8 648.2 520.8C649 519.8 649.7 518.7 650.5 517.6C651.3 516.5 652 515.3 652.8 514.2C654.1 512.7 655.3 510.9 656.4 508.9C657.2 507.8 657.8 506.6 658.5 505.3C658.6 505 658.7 504.8 658.7 504.4C658.7 504.1 658.8 503.8 659.1 503.5C659.7 503 660.1 502.5 660.1 501.9C660.2 501.3 660.3 500.7 660.6 500.1C660.9 499.3 661 498.6 661.2 497.9C661.3 497.2 661.5 496.5 661.6 495.7C661.9 494.9 662.2 494.2 662.7 493.5C663.2 492.8 662.9 492.1 661.8 491.3C661.9 491 662.1 490.8 662.2 490.6C662.3 490.4 662.4 490.3 662.4 490.1C661.9 488.7 661.9 487.3 662.4 485.9C662.9 484.5 662.8 483.1 662.2 481.7C661.6 480.4 661.1 479.2 660.8 477.9C660.5 476.6 660 475.3 659.4 473.9C659 473 658.8 472.1 658.7 471.3C658.6 470.4 658.5 469.6 658.2 468.8C658.1 468.7 658 468.5 658 468.4C657.4 467 656.7 465.8 656.1 464.6C655.5 463.5 654.5 462.5 653.1 461.6C652.6 461.3 652.1 461 651.6 460.7C651.1 460.3 650.7 459.9 650.3 459.4C649.9 458.8 649.5 458.3 649 458.1C648.5 457.8 647.9 457.6 647.3 457.3C647.2 457.3 647 457.3 646.9 457.2C646.8 457.1 646.6 457.1 646.5 457.1L641.4 454.8C641.1 454.7 640.8 454.7 640.3 455C639.9 455.3 639.5 455.5 639.2 455.7C638.8 455.9 638.5 456.1 638.3 456.4C636.5 457.8 634.9 459.2 633.4 460.7C631.9 462.2 630.5 463.8 629.2 465.7C629.1 465.8 629.1 465.9 629 466C628.5 465.8 628.1 465.9 627.8 466.4C627.5 467 626.9 467.3 626.3 467.5C625.8 467.6 625.3 467.8 625 468.1C623.8 469.2 622.8 470.5 621.7 471.6C621.6 471.7 621.5 471.8 621.4 471.9C620.5 472.7 619.7 473.4 618.8 474.2C618.1 474.8 617.8 475.8 616.9 476.2C616.7 476.3 616.6 476.4 616.6 476.6C616.3 477.6 615.4 478.2 614.7 478.9C614.1 479.4 613.4 479.9 612.9 480.5C610.9 482.6 609.2 484.8 607.4 487C606.3 488.4 604.9 489.6 604.2 491.3C604.2 491.4 604.1 491.4 604.1 491.5C602.5 493.3 601.2 495.3 600.1 497.4C600 497.7 599.8 497.8 599.6 498.1C599.5 498.3 598.9 499.3 598.2 500.5C597.8 501.1 597.4 501.8 596.9 502.6C596.5 503.4 596 504.1 595.6 504.9C593.8 508 592.2 511.2 592.1 511.3C592 511.4 591.5 512.2 591 513.2C590.5 514.2 589.9 515.3 589.7 516.1C589.6 516.3 589.5 516.6 589.3 517.1C589 517.2 588.7 517.2 588.2 517.2C588.5 517.5 588.7 517.7 588.9 517.9C588.7 518.3 588.5 518.6 588.3 519.1C588.3 519.2 588.2 519.2 588.2 519.3L587.7 519.7C587.8 519.9 587.9 520 587.9 520.1C587.8 520.3 587.8 520.4 587.7 520.6C587.5 520.7 587.4 520.9 587.2 521.1C586.8 521.4 586.4 521.8 586 522.3C585.6 522.9 585.4 523.2 585.5 523.3C585.7 523.7 585.9 524 585.9 524.2C585.7 524.6 585.5 525 585.4 525.4C585.1 525.6 584.7 525.7 584.4 525.8L584 527.3C582.9 527.8 582.5 528.8 582.9 530.1C582.9 530.5 582.7 530.9 582.3 531.2C580.4 531.8 580 532.9 581.2 534.4C580.6 534.7 580.2 535 580.1 535.3C579.5 537.1 578.8 538.9 578 540.7C577.2 542.5 576.9 544.5 577.1 546.7C577.1 547 577 547.1 576.9 547.3C576.8 548.6 576.6 549.8 576.4 550.9C576.2 552 576.1 553.2 575.9 554.5C575.6 556.3 575.7 558 576 559.7C576.3 561.4 576.7 563.1 577.2 564.9C577.5 565.7 577.7 566.4 577.9 567C578.1 567.6 578.4 568.3 578.8 568.9C579.2 569.5 579.6 570.2 580 570.8C580.4 571.4 580.9 572.1 581.2 572.7C581.5 573.3 581.7 573.9 581.9 574.5C582.1 575.1 582.4 575.5 582.9 575.9C584.2 577.2 585.1 578.9 585.7 581.2L586.3 582.3V582.5C586.4 582.6 586.5 582.8 586.5 582.9C586.6 583 586.7 583.2 586.7 583.3C587.2 583.9 587.6 584.5 588 585.1C588.4 585.7 588.9 586.3 589.5 586.9C589.5 586.4 589.5 586 589.6 585.7C589.7 585.4 589.7 585.1 589.7 584.8C589.8 584.8 589.9 584.8 590 584.7C590.1 584.6 590.2 584.6 590.3 584.6C590.4 585.6 590.8 586.3 591.3 586.6C591.9 586.9 592.5 587.1 593.3 587.1C594.1 587.2 594.8 587.3 595.5 587.3C596.2 587.3 596.7 586.9 597.1 586C597.7 585 598.5 584.9 599.6 585.6C601 586.7 602.5 587.3 604.1 587.3C605.7 587.3 607.4 587.2 609 586.9C610.6 586.6 612.2 586.3 613.7 585.8C615.2 585.3 616.7 584.5 618.1 583.5C618.7 583.1 619.7 582.5 620.9 581.7C622.2 580.9 623.5 580 624.8 579.1C626.1 578.2 627.4 577.4 628.7 576.6C630 575.8 631 575.3 631.7 574.9C632 574.8 632.2 574.6 632.4 574.5C632.6 574.4 632.8 574.2 633.1 574.1C634.7 572.7 636.4 571.3 638 569.8C639.6 568.4 641.2 566.9 642.7 565.5C644.2 564 645.8 562.6 647.5 561.4C649.2 560.2 650.6 558.6 651.6 556.6C652 556.2 652.2 556.1 652.2 556.2L653.9 554.5C654.2 554.2 654.4 554 654.6 553.7C654.8 553.4 655 553.2 655.3 552.9C655.6 552.6 655.8 552.5 656.2 552.4C656.5 552.3 656.8 552.2 657.1 551.9C658.4 550.6 659.6 549.4 660.8 548.1C662 546.8 663.3 545.5 664.7 544.1L667.9 540.9C665.4 541.4 664.4 541.2 663.6 541.6ZM626.7 534.6C626.6 535.2 626.5 535.6 626.2 535.8C625.4 536.4 624.7 537 623.8 537.5C623 538 622.1 538.5 621.2 539L620.6 538.4L622.9 536.7C623.2 536.3 623.5 535.9 623.8 535.6C624.2 535.2 624.5 534.8 624.7 534.5C625.1 533.5 625.8 533 626.8 533C626.9 533.5 626.8 534 626.7 534.6ZM629.6 531.8C629.3 532.3 629.1 532.6 628.8 532.6C628.4 532.7 627.8 532.8 626.9 532.8C627.2 532.5 627.3 532.3 627.4 532.1C627.5 531.9 627.6 531.7 627.9 531.4C628.3 531 628.7 531 629.2 531.2C629.3 531.2 629.5 531.3 629.6 531.4C629.8 531.6 629.8 531.7 629.6 531.8ZM639.5 489.4C640.4 488.9 641.1 488.3 641.8 487.7C642.4 487.1 643.1 486.5 643.9 486C644.4 485.6 644.9 485.2 645.3 484.9C645.7 484.5 646.2 484.1 646.7 483.6C647 483.5 647.5 483 648.2 482.3C649 481.5 649.5 481 649.7 480.8C650.2 480.3 650.8 480 651.4 480C651.7 480 651.9 480.2 652.1 480.6C652.3 481 652.4 481.3 652.4 481.5C652.4 482.8 652.4 484 652.5 485.3C652.6 486.6 652.5 487.8 652.2 489.1C651.7 492.8 650.7 496.2 649.4 499.3C648 502.5 646.4 505.5 644.5 508.6C644.2 508.9 644.1 509.2 644 509.5C643.9 509.9 643.8 510.2 643.7 510.4C643.7 510.8 643.6 511.1 643.3 511.3C642.3 512.6 641.3 513.8 640.3 515.1C639.3 516.4 638.3 517.6 637.3 518.9C636.5 519.9 635.8 520.9 634.9 521.9C634.1 522.9 633.2 523.9 632.3 524.9L631.5 525.7C630.4 527.5 629.1 529.1 627.6 530.5C626.1 532 624.5 533.3 622.8 534.6C622.2 535.1 621.5 535.5 620.9 535.8C620.3 536.1 619.6 536.5 619 536.8L613.3 540.8C613 541.1 612.8 541.2 612.5 541.2C612 541.5 611.5 541.6 611.1 541.8C610.7 541.9 610.2 542.1 609.9 542.4C609.4 542.7 609 542.8 608.6 542.9C608.2 543 607.7 543.1 606.9 543.2C606.3 543.5 605.7 543.6 605.2 543.8C604.7 543.9 604.1 544.1 603.5 544.4C602.5 544.8 601.4 544.8 600.3 544.6C599.2 544.3 598.1 544.2 597.1 544.2L599.6 540.6L600 540.2C601.1 539.2 601.9 538.1 602.4 536.8C602.8 535.5 603.4 534.3 604 533C604.3 532.5 604.6 532.1 604.9 531.7C605.3 531.3 605.6 530.9 605.8 530.6L606.7 529.7C607 529.2 607.2 528.7 607.5 528.3C607.8 527.9 608 527.4 608.3 526.9C608.6 526.1 608.7 525.6 608.7 525.2C608.8 524.7 609 524.3 609.1 524C609.2 523.7 609.6 523.6 610.2 523.7C610.3 523.8 610.5 523.8 610.8 523.7C611.1 523.6 611.2 523.4 611.4 523.3C612.3 522.2 613.1 521 613.9 519.8C614.7 518.6 615.5 517.4 616.4 516.3C616.5 516 616.6 515.8 616.5 515.4C616.4 515.1 616.4 514.7 616.4 514.4C618 513.9 619.3 513 620.2 511.8C621.1 510.5 622 509.3 623 508.2C623.8 507.4 624.5 506.7 625.4 505.8C626.2 505 626.9 504.1 627.6 503.2C628.2 502.3 628.8 501.4 629.2 500.6C629.6 499.7 630.2 498.8 630.8 498C630.9 497.7 631.2 497.4 631.7 496.9C632.2 496.6 632.7 496.4 633.2 496C633.7 495.7 634.1 495.3 634.5 495C635.4 494.1 636.2 493.2 637 492.2C637.6 490.9 638.5 490 639.5 489.4ZM584.9 552.9C584.8 553.6 584.6 554.1 584.2 554.3C584.2 554.4 584 554.5 583.6 554.5C583.6 554.4 583.6 554.2 583.5 554.1C583.4 554 583.4 553.8 583.4 553.7C583.7 553.2 583.8 552.8 584 552.4C584.1 552 584.3 551.6 584.6 551.1C584.9 551.6 584.9 552.2 584.9 552.9Z" fill="black"/>
<path d="M692.3 507.2C692 506.9 691.7 506.7 691.4 506.3C691 506 690.7 505.7 690.5 505.4L689.4 504.3C688.9 504.8 688.4 505.3 687.9 505.8C687.5 506.3 687.1 506.8 686.7 507.4C686.3 508 685.9 508.6 685.7 509.2C684.9 510.6 684.1 512 683.1 513.6C681.7 515.3 680.4 516.9 679 518.6C677.7 520.3 676.3 522 674.9 523.8C674.6 524.1 674.5 524.3 674.4 524.6C674.3 524.9 674.2 525.1 673.9 525.4L674.3 525.8C676.8 523.2 679.2 520.4 681.3 517.6C683.4 514.8 685.6 511.8 687.7 508.8C688 509.1 688.1 509.3 688.3 509.5C688.4 509.7 688.6 509.9 688.9 510.2C688.8 510.2 688.7 510.2 688.6 510.1C688.5 510 688.4 510 688.3 510C688.3 510.4 688.2 510.8 687.9 511.3C687.6 511.9 687.6 512.7 687.7 513.5C687.8 514.3 687.2 514.7 685.8 514.7C685.7 514.7 685.6 514.9 685.5 515.4C685.4 515.9 685.3 516.2 685.2 516.4L685.8 516.8C685.2 517.4 684.5 518 683.9 518.5C683.3 519 682.7 519.6 682.2 520.2C681.6 521.1 681 522 680.5 522.9C680 523.8 679.4 524.8 678.8 525.8C678.2 526.6 677.6 527.3 677 528C676.4 528.7 675.8 529.4 675.2 530.2C674.6 531 673.9 531.7 673.1 532.4C672.3 533.1 671.6 533.8 671 534.6C670.5 535 670 535.4 669.6 535.7C669.2 536.1 668.7 536.5 668.4 536.8C668 537.1 667.7 537.4 667.5 537.7C667.2 538.1 667 538.4 666.7 538.6C665.8 539.2 665.4 539.6 665.4 539.8C665.4 540 665.8 540.5 666.5 541.2C667.4 540.7 668.2 540.2 669.1 539.8C669.9 539.4 670.5 538.6 670.7 537.4L671.3 536.8C671.8 536.2 672.4 535.6 673 535.1C673.6 534.6 674.1 534 674.3 533.4C674.8 532.6 675.3 532 675.9 531.5C676.5 531 677.1 530.4 677.7 529.8C678.3 528.8 679.1 527.9 679.9 527.2C680.7 526.4 681.4 525.6 682.1 524.6C682.4 524.2 682.6 523.7 682.8 523.2C683 522.6 683.2 522.1 683.5 521.6C684.1 520.7 684.8 519.8 685.4 519C686 518.1 686.7 517.3 687.3 516.5C687.8 515.9 688.2 515.4 688.5 514.8C688.8 514.3 689.4 513.8 690.1 513.4C690.7 513.1 691.2 512.6 691.6 511.8C692 511 692.4 510.3 692.7 509.6V508.8C692.7 508.5 692.7 508.3 692.6 507.9C692.3 507.7 692.3 507.5 692.3 507.2Z" fill="black"/>
<path d="M854 476.9C855.4 476.1 856.9 475.3 858.3 474.3C858.9 473.9 859.4 473.5 859.8 473.2C860.2 472.8 860.6 472.5 861.1 472.3C862.4 471.7 863.6 471.1 864.8 470.5C866 469.9 867.2 469.3 868.5 468.5C870 467.5 871.4 466.5 872.8 465.6C874.1 464.7 875.5 463.7 877.1 462.7C878.6 461.6 880.1 460.4 881.5 459.2C882.9 458 884.5 456.9 886.2 455.9C886.8 455.3 887.5 454.6 888.3 453.9C889.1 453.2 889.8 452.6 890.6 452.1C891.9 451.3 892.7 450.3 893.2 448.9C893.6 447.5 894.6 446.6 895.9 446.1V445.7C896.9 444.3 897.9 442.9 899 441.3C900.1 439.8 901.1 438.2 902.1 436.6C903.1 435.2 904.1 433.8 905 432.4C905.9 431 906.4 429.4 906.4 427.5C906.7 426.9 906.7 426.2 906.7 425.4C906.6 424.6 906.7 424 906.8 423.3C906.7 422.7 906.7 422 906.8 421.4C906.9 420.8 907 420.2 907 419.7C906.6 417.2 905.8 414.9 904.5 412.8C903.2 410.7 902.3 408.5 901.7 406.1C901.6 406 901.5 405.8 901.5 405.7V405.5C899.5 403.5 897.3 401.5 895.1 399.6C894 398.8 892.8 398.1 891.5 397.3C890.2 396.5 889 395.8 887.7 395C887.1 394.7 886.4 394.5 885.7 394.3C885 394.1 884.3 393.8 883.7 393.4C882.3 392.1 880.8 391.4 879.1 391C877.4 390.7 875.7 390.4 873.9 390.1C872.4 389.8 870.9 389.7 869.5 389.7C868 389.7 866.6 389.7 865.1 389.7C862.7 389.4 860.2 389.4 857.7 389.7C855.2 390 852.7 390.3 850.1 390.6C848.8 390.9 847.9 391.1 847.3 391.4C845.9 391.7 844.6 391.9 843.3 392.3C842 392.6 840.8 392.9 839.5 393.2C838.5 393.5 837.5 393.8 836.6 394.1C835.7 394.5 834.7 394.8 833.7 395C832.7 395.4 831.7 395.7 830.7 396C829.7 396.3 828.7 396.7 827.7 397C826.8 397.5 825.9 398 825 398.5C824.1 399 823 399.4 821.9 399.8C820.5 400.1 819.7 400.2 819.3 400.4C819 400.5 818.4 401 817.5 401.9C816.7 402.4 816 402.8 815.4 403.1C814.8 403.4 814.1 403.8 813.3 404.3C810.4 406.1 807.5 407.8 804.6 409.4C801.7 411 798.8 412.8 795.9 414.7C793.6 416.1 791.3 417.6 788.8 419.1C786.3 420.7 784 422.2 781.9 423.7C781.1 424.3 780.3 425 779.3 425.6C778.4 426.2 777.5 426.9 776.7 427.5C775.8 428.3 774.9 429 774.1 429.7C773.2 430.4 772.2 431.1 771.1 431.7C769.2 433.1 767.3 434.5 765.5 436.1C763.7 437.6 761.8 439 759.9 440.3C758.9 440.9 757.9 441.5 756.9 442.1C755.9 442.7 755 443.5 754.3 444.5C754 444.9 753.8 445.3 753.6 445.7C753.4 446.1 753.2 446.6 752.9 447.1C752.6 447.4 752.5 447.6 752.4 447.9C752.3 448.2 752.2 448.3 751.9 448.3C750.9 448.6 750.2 449 749.7 449.6C749.3 450.2 749 450.9 749 451.5C749 452.1 749 452.9 748.9 453.8C748.8 454.7 749.4 455.3 750.5 455.5C750.8 455.5 750.9 455.8 750.9 456.4C751.2 457 751.4 457.7 751.6 458.3C751.8 458.9 752.1 459.6 752.5 460.2C753.5 461.6 754.7 462.7 756.1 463.4C757.5 464.2 758.9 464.8 760.3 465.3C760.6 465.4 760.9 465.4 761.2 465.2C761.6 465 762 464.9 762.3 464.7C762.6 464.6 762.8 464.4 763 464.3C763.2 464.2 763.4 464 763.7 463.9C764.7 463.4 765.7 463 766.5 462.6C767.4 462.2 768.1 461.7 768.8 461.1C770.2 460.1 771.6 459 773 457.9C774.4 456.8 775.8 455.7 777.2 454.7C778.6 453.3 780 452 781.6 450.6C783.1 449.3 784.6 447.9 786.1 446.5C787.6 445 789.3 443.6 791 442.2C792.8 440.9 794.5 439.7 796.3 438.7C797.1 438.2 797.8 437.7 798.6 437.1C799.4 436.5 800.2 435.9 801.2 435.3C800.7 436.3 800.4 437.1 800.3 437.7C800.2 438.3 800 438.9 799.7 439.5C798.9 440.9 798.2 442.3 797.5 443.7C796.8 445.1 796.1 446.6 795.5 448.2C794.7 449.6 794.1 451.1 793.5 452.6C792.9 454.2 792.3 455.7 791.5 457C791.2 458 790.9 458.9 790.5 459.6C790.1 460.3 789.6 461 789.3 461.8C788.3 463.9 787.3 466 786.5 468C785.6 470 784.7 471.9 783.7 474C783.1 475.6 782.4 477.3 781.8 479.1C781.2 480.9 780.5 482.6 779.7 484.4C779.4 485.3 779.1 485.8 778.6 485.9C776.8 486.9 775 487.6 773.2 488.1C771.4 488.5 769.6 488.7 767.8 488.6C766.5 488.6 765.4 488.5 764.3 488.3C763.2 488.1 762.1 487.9 761 487.6C759.6 487.1 758.5 486.2 757.8 485C757 483.8 756.1 482.5 755 481.1C755.5 479.7 755.4 478.6 754.8 477.7C754.2 476.8 753.7 475.9 753.3 474.9H752.9C752.6 476.2 752.4 477.1 752.1 477.7C752.6 478 753 478.3 753.4 478.8C752.4 478.9 751.8 479.2 751.7 479.7C751.6 480.1 751.6 480.7 751.9 481.3V482.1C752 482.7 752.1 483.2 752.1 483.6C752.1 484 752.2 484.5 752.3 485.1C752.6 485.6 752.7 486 752.7 486.2C752.8 488 753.1 489.7 753.5 491.5C753.9 493.3 754.7 494.9 756 496.4C756.6 496.7 757.1 497 757.5 497.3C757.9 497.7 758.2 498.1 758.4 498.6C759 499.9 759.6 501 760.1 502.1C760.6 503.2 761.2 504.3 761.8 505.6C761.8 505.7 761.9 505.8 762 505.8H762.4C763.5 506.4 764.6 507.1 765.6 507.8C766.6 508.5 767.6 509.2 768.6 509.8C769 510.1 769.2 510.6 769.2 511.5C768.9 512.9 768.7 514.2 768.3 515.4C768 516.6 767.7 517.8 767.4 518.9C766.5 521.4 765.7 523.9 764.9 526.3C764.1 528.7 763.4 531.3 762.8 534.1C761.9 537.4 761.2 540.7 760.5 544C760.2 545.5 759.9 547 759.7 548.4C758.7 551 757.7 553.6 756.7 556.1C755.9 558.2 756.6 559.9 757.9 561C757.8 561.7 757.7 562.5 757.6 563.2C757.2 566.4 756.8 569.5 756.5 572.4C756.1 576.6 756.1 580.7 756.5 584.9C756.6 585.7 756.7 586.5 756.8 587.2C756.8 587.3 756.8 587.4 756.8 587.5C756.8 587.8 756.9 588.1 756.9 588.4C757 588.9 757 589.5 757.1 590C757.3 591.6 757.6 593.2 758 594.7C758.1 595.7 758.4 596.6 758.9 597.3C759.3 598 759.7 598.7 759.9 599.3C760.5 599.9 761.1 600.6 761.6 601.4C762.1 602.2 762.9 602.5 764.1 602.5C764.2 602.5 764.3 602.6 764.3 602.7C764.3 603 764.4 603.1 764.5 603.1C764.8 603.2 765 603.3 765.2 603.3C765.4 603.3 765.6 603.4 765.9 603.5C765.9 603.2 766 603 766.2 602.7C766.4 602.4 766.5 602.2 766.5 601.9C766.2 601.5 766 601.1 765.8 600.8C765.6 600.4 765.4 600 765.1 599.5C765 599.4 765 599.2 765.3 598.9C765.8 598.6 766.1 598.5 766.2 598.3C766.3 597.8 766.4 597.3 766.5 596.9C766.6 596.5 766.6 595.9 766.6 595.3C766.7 593.7 766.7 592.1 766.5 590.6C766.5 590.4 766.5 590.1 766.5 589.9C766.8 589.3 766.9 588.5 766.9 587.7C767.1 587.2 767.4 586.6 767.7 586.1V585.5C767.8 584.2 768.4 583.5 769.4 583.4C770 583.4 770.3 583.1 770.3 582.6C770.6 581.3 770.7 580 770.9 578.7C771 577.4 771.3 576.1 771.7 574.8C771.8 573.8 771.9 572.8 771.8 571.8C771.7 570.8 772.4 569.8 773.8 569C773.9 568.9 774 568.8 774 568.7C774 568.6 774.1 568.5 774.2 568.4C774.3 567.6 774.4 566.9 774.5 566C774.6 565.2 774.7 564.3 775 563.4C775 563.1 775 562.9 774.9 562.6C774.8 562.3 774.9 562 775 561.5C776 560.2 776.8 558.9 777.4 557.6C778 556.3 778.3 554.8 778.3 553.2C778 551.9 778.2 550.9 778.9 550C779.4 549.2 779.7 548.5 779.8 547.7C779.9 546.9 780 546.2 780.3 545.4C780.3 545.1 780.4 544.8 780.7 544.3C781 543.7 781.1 543.1 781.3 542.5C781.4 541.9 781.6 541.3 781.9 540.7C782.2 540.1 782.3 539.4 782.4 538.8C782.5 538.2 782.6 537.7 782.9 537.5C784.2 536.9 784.7 535.9 784.4 534.7C784.7 533.9 784.9 533.4 785.2 533.2C785.6 532.7 785.9 532.2 786.1 531.7C786.3 531.2 786.1 530.7 785.6 530.2C786.2 529.7 786.7 529.2 787 528.6C787.3 528 787.2 527.4 786.5 526.6C786.4 526.5 786.4 526.2 786.6 525.7C786.8 525.3 786.9 525 787.1 525C787.7 525 788.2 524.8 788.5 524.4C788.8 524 789.1 523.6 789.4 523.3C789.7 522.3 789.9 521.2 790.3 520.1C790.6 519 790.6 517.8 790.4 516.7C790.4 515.9 790.7 515.3 791.2 514.8C792.6 514 793.3 512.8 793.3 511.2C793.2 511.1 793.3 510.8 793.7 510.4C793.8 510.1 794 509.8 794.1 509.5C794.2 509.1 794.4 508.8 794.5 508.6C794.4 507.7 794.5 507.1 794.8 506.6C795.1 506.2 795.6 505.7 796.2 505.4C796.8 505.1 797.4 504.9 798 504.7C798.6 504.5 799.2 504.3 799.8 504C800.8 503.4 801.8 502.9 802.9 502.6C804 502.3 805 501.6 806 500.6C807.4 501.1 808.8 500.8 810.2 499.7C810.3 499.3 810.7 499 811.3 498.8C812.7 498.3 814 497.8 815.3 497.3C816.6 496.8 817.9 496.2 819.3 495.6C820.7 495 822 494.4 823.4 493.8C824.7 493.2 826.1 492.6 827.5 492C827.5 491.7 827.5 491.5 827.4 491.3C827.3 491.1 827.4 490.8 827.5 490.4H828.8C829.4 490.3 830.1 490.3 830.9 490.4C831.7 490.5 832.2 490 832.6 488.9C832.6 488.8 832.9 488.7 833.5 488.7C833.9 488.4 834.3 488.3 834.8 488.2C835.3 488.1 835.7 488 836.1 487.7C836.9 487.2 837.6 486.8 838.4 486.4C839.2 486 839.8 485.6 840.5 485.3C842.3 484.3 843.9 483.3 845.4 482.2C846.9 481.1 848.6 480.1 850.3 479.1C851 478.6 852.6 477.7 854 476.9ZM772.5 516.5C772.7 515.7 773 515.1 773.3 514.6C773.3 514.5 773.4 514.5 773.4 514.4C773.1 515.1 772.8 515.8 772.5 516.5ZM789.8 476C789.5 476.6 788.8 477.3 787.5 478.1C788 477.5 788.4 476.8 788.5 476.1C788.7 475.4 789 474.6 789.5 473.5C790 474.5 790 475.3 789.8 476ZM841.4 455.8C839.4 456.9 837.2 458 835 459.3C832.7 460.6 830.4 461.9 828.1 463.2C825.8 464.5 823.4 465.8 821 467.1C819.4 467.9 817.8 468.6 816.2 469.3C814.6 470 813 470.7 811.2 471.5C810.9 471.6 810.7 471.7 810.5 471.6C810.3 471.5 810.1 471.5 809.8 471.5C810.3 470.5 810.7 469.5 810.9 468.7C811.2 467.8 811.6 466.9 812.2 466.1C812.8 465.2 813.4 464.3 813.8 463.3C814.2 462.3 814.6 461.3 814.8 460.3C814.8 460 815 459.7 815.4 459.4C815.7 459 816 458.6 816.5 458.2C817 457.8 817.3 457.2 817.4 456.6C817.4 456.3 817.6 456.1 818 455.8C818.4 455.5 818.7 455.3 818.9 455C818.4 454.5 818.1 454.1 818.1 453.9C818.6 453.1 819.1 452.5 819.5 451.8C819.9 451.2 820.5 450.5 821.1 449.7C821.4 449.3 821.5 448.9 821.6 448.5C821.7 448.1 821.8 447.6 822.1 447.1C822.4 446.8 822.6 446.4 822.9 445.8C823.3 445.2 823.7 444.6 824 444.2C824.4 443.8 824.8 443.3 825.1 442.8C826.1 442 826.7 441.4 826.8 440.9C827.4 439.8 827.9 438.5 828.3 437.2C828.7 435.9 829.2 434.6 830 433.3C830.4 432.5 830.9 431.8 831.4 431C832 430.2 832.5 429.5 833 428.7C833.4 428.2 833.9 427.6 834.7 426.8C835.7 425.7 836.3 424.4 836.6 423C836.9 421.6 837.4 420.2 838.3 418.8C838.7 418 838.9 417.2 839.1 416.3C839.2 415.4 839.4 414.5 839.7 413.7C839.7 413.3 839.9 412.9 840.3 412.6C841.3 412.1 842.2 411.7 843 411.3C843.8 410.9 844.7 410.6 845.6 410.4C847.5 409.8 849.4 409.3 851.4 408.9C853.4 408.5 855.3 408.1 857.2 407.6C858.2 407.3 859.2 407.2 860.3 407.1C861.4 407 862.5 406.9 863.6 406.6C865.7 406 867.9 405.7 870 405.8C872.1 405.9 874.3 406 876.4 406C878.2 405.7 879.7 405.8 881.1 406.3C882.5 406.7 884.1 407.2 885.8 407.5C887.1 407.8 888.2 408.1 889.2 408.4C890.2 408.8 891.2 409.1 892.2 409.3C893.6 409.7 893.9 410.6 893.1 411.9C892.5 413.4 891.9 414.9 891.3 416.3C890.7 417.7 890 418.9 889.1 420.1C887.1 423 884.9 425.5 882.7 427.5C880.2 430 877.2 432.5 873.8 434.9C871.7 436.4 869.6 437.8 867.6 439.2C865.6 440.5 863.5 441.9 861.4 443.3C859.1 444.8 856.8 446.4 854.4 447.9C852 449.5 849.6 451 847.2 452.3C845.5 453.5 843.5 454.7 841.4 455.8Z" fill="black"/>
<path d="M937.5 541.6C936.7 541.9 936 542.4 935.5 543C933.9 544.9 932.2 546.7 930.4 548.3C928.6 549.9 926.8 551.5 924.9 553C924.5 553.3 924.2 553.5 923.9 553.9C923.6 554.2 923.2 554.5 922.9 554.8C922.6 554.9 922.4 554.9 922 554.8C921.7 554.7 921.4 554.6 921.1 554.6C921.4 554.3 921.5 554.2 921.6 554C921.7 553.9 921.8 553.7 922.1 553.6C922.2 553.5 922.4 553.4 922.5 553.3C922.6 553.2 922.8 553.1 922.9 553C923.7 552.2 924.4 551.5 925.3 550.6C926.1 549.8 926.9 548.9 927.7 548C928 547.7 928.2 547.5 928.4 547.1C928.6 546.8 928.8 546.4 929.1 546.1C932 542.9 935 539.8 938.1 536.6C941.2 533.4 944.3 530.2 947.3 526.9C947.2 526.6 947 526.5 946.9 526.4C946.8 526.3 946.6 526.2 946.5 526.1C946.1 526.6 945.7 527.1 945.4 527.6C945 528.1 944.6 528.5 944.1 528.9C942.3 530.7 940.5 532.4 938.7 534C936.9 535.6 935 537.3 933.1 538.9C931 541 928.8 543.1 926.7 545.1C924.6 547.1 922.3 549.1 920.1 551.2C917.5 553.5 914.8 555.7 912.2 558C909.5 560.3 906.8 562.5 904.1 564.6C903 565.4 901.6 566.3 900 567.5C898.4 568.7 896.8 569.9 895 571.1C893.2 572.3 891.5 573.4 889.9 574.5C888.3 575.6 886.9 576.5 885.7 577.2C883.6 578.6 880.9 579.7 877.8 580.5C874.6 581.3 871.8 581.5 869.3 581.2C867.9 580.9 866.8 580.3 866.1 579.1C865.7 578.5 865.5 577.8 865.4 577.1C865.3 576.4 865.2 575.7 865.1 575.1L864.5 574C864.2 573.1 863.9 572.6 863.6 572.5C862.8 571.9 862.7 571.1 863.2 570.2C863.7 569.4 863.8 568.8 863.4 568.1C862.5 566.6 862.6 565.3 863.8 564.1C864.1 564 864.3 563.7 864.6 563.2C864.7 562.6 864.9 561.9 865 561.3C865.1 560.7 865.3 560 865.6 559.4C865.3 559.2 865 558.9 864.6 558.7C864.2 558.5 864.3 558.1 864.9 557.5C865.2 557.2 865.3 557 865.4 556.8C865.5 556.6 865.6 556.4 865.9 556.1C866 555.8 866.1 555.6 866.2 555.3C866.3 555 866.4 554.9 866.7 554.7C868.1 553.9 868.7 552.9 868.4 551.7L869.5 551.1L869.7 551.3C871.3 551.7 873.5 551.8 876.3 551.7C879.1 551.6 881.3 551.3 882.9 550.9H883.1C883.5 550.9 884 550.8 884.8 550.5C886.8 549.9 888.8 549.3 890.9 548.7C892.9 548.1 894.8 547.2 896.6 545.8C896.7 545.7 896.9 545.6 897.2 545.6C898.1 545 898.9 544.4 899.8 543.9C900.6 543.4 901.4 542.8 902.2 542.2C902.8 541.7 903.4 541.2 904 540.7C904.6 540.2 905.2 539.7 905.8 539.2C906.6 538.6 907.4 537.9 908.3 537.3C909.2 536.7 909.9 536 910.6 535.4C911.5 534.4 912.3 533.4 913 532.3C913.7 531.2 914.7 530.4 915.9 529.7C916.3 529.6 916.6 529.2 916.8 528.6C917.2 527.6 917.6 526.8 918.1 526.1C918.7 525.1 919.4 524.2 920.1 523.4C920.8 522.6 921.5 521.8 922.1 520.8C922.9 519.8 923.6 518.7 924.4 517.6C925.2 516.5 925.9 515.3 926.7 514.2C928 512.7 929.2 510.9 930.3 508.9C931.1 507.8 931.7 506.6 932.4 505.3C932.5 505 932.6 504.8 932.6 504.4C932.6 504.1 932.7 503.8 933 503.5C933.6 503 934 502.5 934 501.9C934.1 501.3 934.2 500.7 934.5 500.1C934.8 499.3 934.9 498.6 935.1 497.9C935.2 497.2 935.4 496.5 935.5 495.7C935.8 494.9 936.1 494.2 936.6 493.5C937.1 492.8 936.8 492.1 935.7 491.3C935.8 491 936 490.8 936.1 490.6C936.2 490.4 936.3 490.3 936.3 490.1C935.8 488.7 935.8 487.3 936.3 485.9C936.8 484.5 936.7 483.1 936.1 481.7C935.5 480.4 935 479.2 934.7 477.9C934.4 476.6 933.9 475.3 933.3 473.9C932.9 473 932.7 472.1 932.6 471.3C932.5 470.4 932.4 469.6 932.1 468.8C932 468.7 931.9 468.5 931.9 468.4C931.3 467 930.6 465.8 930 464.6C929.4 463.5 928.4 462.5 927 461.6C926.5 461.3 926 461 925.5 460.7C925 460.3 924.6 459.9 924.2 459.4C923.8 458.8 923.4 458.3 922.9 458.1C922.4 457.8 921.8 457.6 921.2 457.3C921.1 457.3 920.9 457.3 920.8 457.2C920.7 457.1 920.5 457.1 920.4 457.1L915.3 454.8C915 454.7 914.7 454.7 914.2 455C913.8 455.3 913.4 455.5 913.1 455.7C912.7 455.9 912.4 456.1 912.2 456.4C910.4 457.8 908.8 459.2 907.3 460.7C905.8 462.2 904.4 463.8 903.1 465.7C902.1 467.3 900.9 468.8 899.4 470.1C897.9 471.4 896.6 472.8 895.3 474.4C894 475.8 892.8 477.1 891.5 478.4C890.2 479.7 889.1 481 888.1 482.6C887.7 483.2 887.2 483.8 886.5 484.3C885.8 484.8 885.6 485.6 886 486.8H885.2C884.2 487.1 883.2 487.7 882.2 488.7C881.2 489.7 880.7 490.6 880.9 491.3C881.2 492.7 880.8 493.5 879.8 493.8C879.4 494.4 879.1 494.9 878.9 495.3C878.6 495.7 878.4 496.1 878.1 496.4C878 496.4 877.9 496.4 877.8 496.3C877.7 496.2 877.6 496.2 877.5 496.2C877.6 495.9 877.8 495.4 878.1 494.7C875.8 497.6 873.7 500.3 871.9 502.6C872.2 503 872.4 503.3 872.7 503.6C872.8 503.8 873 503.9 873.1 504C872.9 504.2 872.7 504.4 872.6 504.6C872.3 504.6 872 504.7 871.8 504.8C871.8 505 871.9 505.2 871.9 505.5C871 506.5 870.1 507.6 869.3 508.6C869.2 508.6 869.1 508.6 869.1 508.7C869 508.8 868.9 508.8 868.8 508.8C868.6 509.2 868.4 509.6 868.2 510C867.5 510.9 866.7 511.9 866 512.8C865 514.2 863.8 515.6 862.7 517.1C862.6 517.1 862.5 517.1 862.4 517.1C862.5 517.2 862.5 517.2 862.6 517.3C855.6 526.4 847.9 537.3 849.4 548.6C849.5 549.6 849.9 550.4 850.4 551.1C850.2 552.2 850.1 553.3 850 554.4C849.7 556.2 849.8 557.9 850.1 559.6C850.4 561.3 850.8 563 851.3 564.8C851.6 565.6 851.8 566.3 852 566.9C852.2 567.5 852.5 568.2 852.9 568.8C853.3 569.4 853.7 570.1 854.1 570.7C854.5 571.3 855 572 855.3 572.6C855.6 573.2 855.8 573.8 856 574.4C856.2 575 856.5 575.4 857 575.8C858.3 577.1 859.2 578.8 859.8 581.1L860.4 582.2V582.4C860.5 582.5 860.6 582.7 860.6 582.8C860.7 582.9 860.8 583.1 860.8 583.2C861.3 583.8 861.7 584.4 862.1 585C862.5 585.6 863 586.2 863.6 586.8C863.6 586.3 863.6 585.9 863.7 585.6C863.8 585.3 863.8 585 863.8 584.7C863.9 584.7 864 584.7 864.1 584.6C864.2 584.5 864.3 584.5 864.4 584.5C864.5 585.5 864.9 586.2 865.4 586.5C866 586.8 866.6 587 867.4 587C868.2 587.1 868.9 587.2 869.6 587.2C870.3 587.2 870.8 586.8 871.2 585.9C871.8 584.9 872.6 584.8 873.7 585.5C875.1 586.6 876.6 587.2 878.2 587.2C879.8 587.2 881.5 587.1 883.1 586.8C884.7 586.5 886.3 586.2 887.8 585.7C889.3 585.2 890.8 584.4 892.2 583.4C892.8 583 893.8 582.4 895 581.6C896.3 580.8 897.6 579.9 898.9 579C900.2 578.1 901.5 577.3 902.8 576.5C904.1 575.7 905.1 575.2 905.8 574.8C906.1 574.7 906.3 574.5 906.5 574.4C906.7 574.3 906.9 574.1 907.2 574C908.8 572.6 910.5 571.2 912.1 569.7C913.7 568.3 915.3 566.8 916.8 565.4C918.3 563.9 919.9 562.5 921.6 561.3C923.3 560.1 924.7 558.5 925.7 556.5C926.1 556.1 926.3 556 926.3 556.1L928 554.4C928.3 554.1 928.5 553.9 928.7 553.6C928.9 553.3 929.1 553.1 929.4 552.8C929.7 552.5 929.9 552.4 930.3 552.3C930.6 552.2 930.9 552.1 931.2 551.8C932.5 550.5 933.7 549.3 934.9 548C936.1 546.7 937.4 545.4 938.8 544L942 540.8C939.3 541.4 938.3 541.2 937.5 541.6ZM900.6 534.6C900.5 535.2 900.4 535.6 900.1 535.8C899.3 536.4 898.6 537 897.7 537.5C896.9 538 896 538.5 895.1 539L894.5 538.4L896.8 536.7C897.1 536.3 897.4 535.9 897.7 535.6C898.1 535.2 898.4 534.8 898.6 534.5C899 533.5 899.7 533 900.7 533C900.7 533.5 900.6 534 900.6 534.6ZM903.5 531.8C903.2 532.3 903 532.6 902.7 532.6C902.3 532.7 901.7 532.8 900.8 532.8C901.1 532.5 901.2 532.3 901.3 532.1C901.4 531.9 901.5 531.7 901.8 531.4C902.2 531 902.6 531 903.1 531.2C903.2 531.2 903.4 531.3 903.5 531.4C903.6 531.6 903.6 531.7 903.5 531.8ZM873.4 540.5L873.8 540.1C874.9 539.1 875.7 538 876.2 536.7C876.6 535.4 877.2 534.2 877.8 532.9C878.1 532.4 878.4 532 878.7 531.6C879.1 531.2 879.4 530.8 879.6 530.5L880.5 529.6C880.8 529.1 881 528.6 881.3 528.2C881.6 527.8 881.8 527.3 882.1 526.8C882.4 526 882.5 525.5 882.5 525.1C882.6 524.6 882.8 524.2 882.9 523.9C883 523.6 883.4 523.5 884 523.6C884.1 523.7 884.3 523.7 884.6 523.6C884.9 523.5 885 523.3 885.2 523.2C886.1 522.1 886.9 520.9 887.7 519.7C888.5 518.5 889.3 517.3 890.2 516.2C890.3 515.9 890.4 515.7 890.3 515.3C890.2 515 890.2 514.6 890.2 514.3C891.8 513.8 893.1 512.9 894 511.7C894.9 510.4 895.8 509.2 896.8 508.1C897.6 507.3 898.3 506.6 899.2 505.7C900 504.9 900.7 504 901.4 503.1C902 502.2 902.6 501.3 903 500.5C903.4 499.6 904 498.7 904.6 497.9C904.7 497.6 905 497.3 905.5 496.8C906 496.5 906.5 496.3 907 495.9C907.5 495.6 907.9 495.2 908.3 494.9C909.2 494 910 493.1 910.8 492.1C911.6 491.1 912.4 490.3 913.4 489.6C914.3 489.1 915 488.5 915.7 487.9C916.3 487.3 917 486.7 917.8 486.2C918.3 485.8 918.8 485.4 919.2 485.1C919.6 484.7 920.1 484.3 920.6 483.8C920.9 483.7 921.4 483.2 922.1 482.5C922.9 481.7 923.4 481.2 923.6 481C924.1 480.5 924.7 480.2 925.3 480.2C925.6 480.2 925.8 480.4 926 480.8C926.2 481.2 926.3 481.5 926.3 481.7C926.3 483 926.3 484.2 926.4 485.5C926.5 486.8 926.4 488 926.1 489.3C925.6 493 924.6 496.4 923.3 499.5C921.9 502.7 920.3 505.7 918.4 508.8C918.1 509.1 918 509.4 917.9 509.7C917.8 510.1 917.7 510.4 917.6 510.6C917.6 511 917.5 511.3 917.2 511.5C916.2 512.8 915.2 514 914.2 515.3C913.2 516.6 912.2 517.8 911.2 519.1C910.4 520.1 909.7 521.1 908.8 522.1C908 523.1 907.1 524.1 906.2 525.1L905.4 525.9C904.3 527.7 903 529.3 901.5 530.7C900 532.2 898.4 533.5 896.7 534.8C896.1 535.3 895.4 535.7 894.8 536C894.2 536.3 893.5 536.7 892.9 537L887.2 541C886.9 541.3 886.7 541.4 886.4 541.4C885.9 541.7 885.4 541.8 885 542C884.6 542.1 884.1 542.3 883.8 542.6C883.3 542.9 882.9 543 882.5 543.1C882.1 543.2 881.6 543.3 880.8 543.4C880.2 543.7 879.6 543.8 879.1 544C878.6 544.1 878 544.3 877.4 544.6C876.4 545 875.3 545 874.2 544.8C873.1 544.5 872 544.4 871 544.4L873.4 540.5ZM868.7 529.4C869.6 528.3 870.6 527.7 871.7 527.6C870.9 528.6 870.2 529.5 869.6 530.3C869 531.1 868.3 532 867.5 533C867.4 531.7 867.8 530.5 868.7 529.4ZM858.8 552.9C858.7 553.6 858.5 554.1 858.1 554.3C858.1 554.4 857.9 554.5 857.5 554.5C857.5 554.4 857.5 554.2 857.4 554.1C857.3 554 857.3 553.8 857.3 553.7C857.6 553.2 857.7 552.8 857.9 552.4C858 552 858.2 551.6 858.5 551.1C858.7 551.6 858.8 552.2 858.8 552.9ZM861.6 545.4C861.2 546.5 860.6 547.7 860 548.8H859.4C859.4 547.8 859.5 547.1 859.8 546.7C860.2 545.9 860.6 545.2 861 544.5C861.4 543.8 861.8 543.1 862 542.3C862 542 862.3 541.8 862.8 541.5C862.8 541.8 862.9 541.9 863.2 541.9C862.6 543.2 862 544.3 861.6 545.4Z" fill="black"/>
<path d="M1067.7 457.3C1066.8 456.4 1066 455.3 1065.5 454.2C1065.5 454.1 1065.4 454 1065.1 454C1064 453.7 1063.1 453.3 1062.5 452.6C1061.9 451.9 1061.3 451.2 1060.7 450.4C1059.8 449.3 1058.5 448.5 1056.6 448.1C1054.8 447.7 1053.2 447.4 1052 447.2C1050.7 446.7 1049.8 446.8 1049.2 447.4C1048.4 448 1047.7 448.7 1047 449.3C1046.3 449.9 1045.8 450.7 1045.4 451.6C1045.3 452.6 1044.8 453.6 1043.9 454.4L1043.3 455C1043.2 455.1 1043 455.4 1042.7 455.8C1042.4 456.1 1042.2 456.4 1042 456.8C1041.8 457.2 1041.6 457.7 1041.3 458.2V458.4C1041.2 458.5 1041.1 458.7 1041 458.8C1040.9 458.9 1040.8 459.1 1040.7 459.2C1040.7 459.3 1040.6 459.5 1040.5 459.6C1039.9 460.1 1039.2 460.6 1038.6 461.1C1038 461.6 1037.4 462.2 1036.9 462.8C1035.4 464.6 1033.8 466 1032 467C1031.9 467.1 1031.7 467.2 1031.6 467.3C1031.5 467.4 1031.3 467.5 1031.2 467.8C1030.7 469.1 1030.1 470.2 1029.5 471.3C1028.9 472.4 1028 473.3 1026.9 474C1026.4 474.4 1025.6 474.8 1024.6 475.3C1024.3 475.6 1024.2 475.9 1024 476.3C1023.9 476.7 1023.7 477.1 1023.4 477.3C1022.8 477.9 1022.1 478.6 1021.5 479.2C1020.9 479.8 1020.1 480.4 1019.2 480.9C1018.6 481.3 1018 481.8 1017.6 482.5C1017.2 483.2 1016.7 483.8 1016.2 484.4C1015.7 485 1015.1 485.4 1014.5 485.8C1013.9 486.2 1013 486.3 1012 486.2C1011.9 486.2 1011.8 486.3 1011.8 486.4L1011.6 486.8C1011 487.6 1010.4 488.3 1009.9 489.1C1009.4 489.9 1008.8 490.6 1008.2 491.2C1007.1 492.3 1005.9 493.5 1004.7 494.6C1003.5 495.7 1002.3 496.9 1001.2 498.2C999.3 500.6 997.4 503 995.6 505.3C993.8 507.6 991.9 510 990 512.4C989.7 512.8 989.4 513 989.1 513.2C988.7 513.3 988.3 513.5 988 513.8C987.6 513.7 987.4 513.4 987.2 513C987.6 512.2 987.9 511.5 988.2 510.6C988.5 509.8 988.9 509.1 989.4 508.4C990.2 507.3 991 506.2 991.9 505.2C992.8 504.2 993.5 503.2 994.2 502.2C995 501.2 995.6 500.1 996.2 498.9C996.8 497.7 997.4 496.4 998.2 495C997.4 495.3 997.1 495.4 997.3 495.4H997.1C995 498 992.9 500.8 990.9 503.6C988.9 506.4 986.7 509.1 984.5 511.6C984.1 512.1 983.9 512.7 983.7 513.3C983.6 513.9 983.4 514.6 983.1 515.2C982.8 515.3 982.5 515.5 982.1 515.7C981.7 515.9 981.3 516.2 981.1 516.6C980.1 518 979.1 519.4 978.1 521C977.1 522.5 976 524 974.9 525.4C974.1 526.4 973.5 527.5 973 528.8C972.5 530.1 971.7 531.2 970.7 532.2C969.7 533.2 968.8 534.4 968.1 535.7C967.4 537 966.7 538.3 965.9 539.6C965.8 539.6 965.7 539.6 965.6 539.7C965.5 539.8 965.4 539.8 965.3 539.8C965.3 539.5 965.3 539.3 965.2 539C965.1 538.7 965.1 538.5 965.1 538.2C965.2 537.9 965.4 537.7 965.5 537.3C965.6 537 965.8 536.6 966.1 536.3C966.7 535 967.4 533.8 968 532.5C968.6 531.2 969.3 529.9 969.9 528.5L970.3 527.7C970.9 526.1 971.5 524.4 972 522.8C972.5 521.2 973.7 519.9 975.6 519C975 518.4 974.7 517.4 974.9 516C975.1 514.6 975.5 513.7 976.1 513.2C977.1 512.3 978.1 511.4 979.1 510.6C980.1 509.7 980.6 508.5 980.6 506.8C980.6 506.5 980.7 506.4 980.9 506.2C981.1 506.1 981.3 505.9 981.6 505.6C981.9 505.3 982.1 505.1 982.4 504.8C982.7 504.5 982.9 504.3 983.2 504C983.8 502.9 984.4 501.7 984.9 500.5C985.4 499.3 986.2 498.2 987.2 497.2C988.5 495.8 989.5 494.3 990.4 492.8C991.3 491.2 992.2 489.7 993.2 488.2C994.2 486.7 995.2 485.2 996 483.8C996.9 482.4 997.8 480.9 998.8 479.5C999.3 478.6 999.8 477.8 1000.3 476.9C1000.8 476.1 1001.2 475.2 1001.4 474.2C1001.5 473.6 1001.4 472.8 1001.1 471.9C1000.8 471 1000.3 470.1 999.8 469.3C999.2 468.4 998.6 467.7 997.9 467C997.2 466.4 996.5 466 995.9 465.9C994.9 465.6 994 465.3 993.2 464.9C992.4 464.5 991.5 464.5 990.5 465C989.9 465.3 989.2 465.3 988.6 465C988 464.7 987.1 464.5 986.1 464.2C987.1 463.1 988.1 462.6 989 462.9C989.9 463.2 990.8 463.2 991.6 462.9C990.7 461.9 989.8 461.4 988.8 461.5C987.8 461.6 986.7 461.8 985.6 462.2C984.1 462.7 983.3 462.1 983.3 460.3C982 459.8 981 459.8 980.1 460.3C979.2 460.8 978.5 461.6 978 462.6C976.4 465.3 974.8 467.9 973.3 470.7C971.8 473.4 970.3 476.2 968.9 478.9C967.1 482.2 965.4 485.5 963.8 488.9C962.2 492.3 960.5 495.6 958.9 498.9C957.6 501.4 956.4 504 955.2 506.6C954 509.2 952.9 511.8 951.9 514.5C950.8 517.5 949.7 520.5 948.7 523.7C948.5 523.9 948.4 524.1 948.3 524.3C948 524.6 947.9 524.8 947.8 525.1C947.7 525.4 947.6 525.6 947.3 525.9L947.7 526.3C947.8 526.2 947.9 526 948.1 525.9C947.3 528.5 946.5 531.1 945.8 533.6C945.4 534 944.9 534.5 944.6 535C944.1 535.4 943.6 535.8 943.2 536.1C942.8 536.5 942.3 536.9 942 537.2C941.6 537.5 941.3 537.8 941.1 538.1C940.8 538.5 940.6 538.8 940.3 539C939.4 539.6 939 540 939 540.2C939 540.4 939.4 540.9 940.1 541.6C941 541.1 941.8 540.6 942.7 540.2C943.5 539.8 944.1 539 944.3 537.8L944.9 537.2C944.7 538.2 944.5 539.2 944.4 540.2C944.1 541.8 943.8 543.4 943.5 544.9C943.1 546.4 942.9 548 942.7 549.6C942.7 552.3 942.7 554.9 942.8 557.5C942.9 560.1 943.6 562.6 945 565.2C945.3 566 945.6 566.7 946.1 567.3C946.6 567.9 947.2 568.6 947.8 569.2C948.8 570.3 950 571.2 951.5 571.8C952.9 572.4 954.4 573.1 955.8 574C956.7 574.5 957.5 574.6 958.2 574.4C958.9 574.1 959.5 573.8 960 573.5C961 572.5 962.1 571.6 963.4 570.8C964.7 570 965.6 568.9 966.2 567.4C966.7 566.3 967.3 565.2 968 564.2C968.7 563.2 969.4 562.1 970 561C971.3 558.5 972.5 556 973.6 553.5C974.7 551 976 548.6 977.4 546.2C978.3 544.6 979.2 543 980.1 541.6C981 540.2 982 538.7 982.8 537.1C983.3 536.2 983.7 535.4 984 534.5C984.3 533.7 984.7 532.9 985.2 532.1C985.8 531.1 986.5 530.1 987.3 529.1C988.1 528.1 988.7 527.1 989.4 526.1C990.5 524.5 991.7 522.8 992.8 521.2C993.9 519.6 995 517.9 996 516.3L997.7 512.9C998 512.5 998.1 512.1 998.3 511.7C998.4 511.3 998.6 510.8 998.9 510.5C999.9 509.1 1000.9 507.7 1002 506.3C1003.1 504.9 1004.1 503.5 1005.1 502.1C1005.4 501.8 1005.7 501.3 1006.2 500.6C1007.2 499.6 1008.1 498.5 1008.9 497.4C1009.7 496.3 1010.6 495.1 1011.6 494C1012.2 493 1012.9 492 1013.5 491.1C1014.1 490.2 1014.8 489.2 1015.6 488.3C1017.5 486.4 1019.4 484.5 1021.4 482.7C1023.4 480.9 1025.3 479 1027.4 477.1C1029.5 475 1031.9 472.8 1034.4 470.7C1034.5 470.4 1034.7 470.3 1034.9 470.3C1035.1 470.3 1035.3 470.2 1035.6 470.1C1034.8 471.5 1034.1 472.9 1033.4 474.3C1032.7 475.7 1032 477.1 1031.4 478.5C1030.4 480.5 1029.5 482.6 1028.6 484.7C1027.8 486.8 1026.9 488.9 1026 491.1C1025 493.3 1024.1 495.3 1023.3 497.4C1022.5 499.5 1021.6 501.5 1020.5 503.7C1019.9 505.3 1019.3 506.9 1018.7 508.4C1018.1 509.9 1017.6 511.5 1017.1 513.1C1016.2 515.8 1015.4 518.4 1014.5 521.1C1014 522.7 1013.6 524.3 1013.1 525.8C1009.7 536.2 1007.3 546.9 1005.9 557.8C1005.8 558.6 1005.6 559.3 1005.5 560.1C1005.5 560.3 1005.5 560.4 1005.6 560.5C1005.5 561.4 1005.4 562.2 1005.3 563.1C1005 563.2 1004.9 563.4 1004.8 563.6C1004.7 564 1004.6 564.5 1004.5 565C1004.4 568.3 1004.2 571.5 1004.1 574.7C1004 577.9 1004 581.1 1004.1 584.4C1004.2 587.2 1004.9 589.9 1006.2 592.5C1007.2 594.5 1008.3 596.4 1009.5 598.2C1010.7 600 1012.4 601.4 1014.5 602.6C1015.1 602.9 1015.7 603.2 1016.3 603.6C1016.9 604 1017.5 604.4 1018.1 604.6C1020.9 605.5 1022.7 605 1023.6 603.1C1023.3 603.1 1023.1 603.1 1022.7 603.2C1022.4 603.3 1022.1 603.2 1021.8 602.9C1021.2 602.5 1020.6 602.2 1020.1 601.9C1019.6 601.6 1019.2 601.1 1019 600.5C1018.6 599.5 1018.4 598.4 1018.2 597.4C1018.1 596.3 1017.9 595.2 1017.6 594.1C1017.2 593 1017 591.9 1017 590.9C1017 590.5 1017.1 590 1017.4 589.2C1017.7 588.3 1017.9 587.5 1018.2 586.6C1018.5 585.8 1018.7 584.9 1019 584C1019.3 582.9 1019.3 581.7 1019.2 580.4C1019.1 579.1 1019.3 578.1 1020 577.2C1020.6 576.1 1020.9 574.9 1020.9 573.8C1020.9 572.7 1021 571.6 1021.3 570.6C1022.1 567.4 1022.6 564.3 1022.9 561.1C1023.2 557.9 1023.9 554.8 1025.1 551.7C1025.4 551.2 1025.6 550.7 1025.9 550.3C1026.2 549.9 1026.4 549.4 1026.7 548.9C1026.4 548.6 1026.2 548.4 1025.9 548C1025.8 547.9 1025.7 547.8 1025.7 547.7C1025.8 547.3 1026 547 1026.1 546.6C1026.4 546.4 1026.7 546.2 1026.9 546C1027.2 545.7 1027.3 545.5 1027.4 545.1C1027.5 544.8 1027.6 544.5 1027.9 544.2C1027.7 544 1027.5 543.9 1027.2 543.7C1027.3 543.3 1027.5 543 1027.6 542.6C1028.8 542.6 1029.5 541.9 1029.6 540.4C1029.6 539.5 1029.5 539 1029.2 538.7C1029.2 538.6 1029.1 538.6 1029.1 538.5C1029.4 537.8 1029.6 537.1 1029.9 536.4C1031.1 535.9 1031.4 535.1 1031.1 534C1031.1 533.7 1031.2 533.5 1031.3 533.3C1031.4 533.1 1031.6 532.9 1031.7 532.6C1032.2 531.6 1032.8 530.6 1033.4 529.5C1034 528.4 1034.3 527.4 1034.2 526.4C1034.1 526.1 1034.1 525.9 1034.1 525.6C1034.6 524.4 1035 523.2 1035.5 522C1035.7 521.9 1035.9 521.7 1036.1 521.6C1036.2 521.6 1036.3 521.5 1036.3 521.2C1036.2 521.1 1036 520.9 1035.9 520.8C1036.2 520.1 1036.4 519.4 1036.7 518.7C1036.9 518.6 1037.1 518.5 1037.2 518.4C1037.7 517.6 1038.1 516.9 1038.3 516C1038.6 515.2 1038.8 514.3 1039.1 513.4C1039 513.4 1038.9 513.3 1038.8 513.2C1039 512.8 1039.1 512.4 1039.3 512C1039.6 512 1039.9 512 1040.2 512C1039.9 511.4 1039.9 510.8 1040.2 510.3C1040.4 509.8 1040.7 509.3 1041 508.9C1041.3 508.5 1041.5 508 1041.7 507.4C1041.8 507 1041.8 506.6 1041.6 506.2C1042.2 504.7 1042.8 503.3 1043.4 501.8C1043.8 501.8 1044.2 501.7 1044.7 501.7C1044.7 501.3 1044.7 501 1044.6 500.8C1044.5 500.5 1044.5 500.4 1044.5 500.2C1044.8 499.7 1045 499.3 1045.3 498.9C1045.6 498.5 1045.8 498.2 1046.1 498L1046.5 496.7C1047.5 496.3 1048.1 495.7 1048.4 494.9C1048.7 494.1 1048.9 493.4 1049.2 492.7L1049.6 491.6V491.2L1050.4 490.1C1050.7 489.6 1051.3 488.7 1052.2 487.5C1053.1 486.3 1054.2 485 1055.3 483.7C1056.4 482.4 1057.5 481.1 1058.4 479.9C1059.3 478.7 1059.9 477.9 1060.2 477.3C1060.8 476.3 1061.5 475.3 1062.1 474.3C1062.7 473.3 1063.4 472.3 1064 471.3L1065.7 469.6C1065.8 469.5 1065.9 469.3 1065.9 469.2C1066.3 468.2 1066.7 467.1 1067.2 465.8C1067.7 464.5 1068.3 463.5 1068.9 462.6C1069 462.3 1069.1 461.9 1069.1 461.3C1069.1 459.4 1068.6 458.3 1067.7 457.3ZM981.9 524.5C981.3 525.4 980.6 526.4 980 527.4C979.7 527.7 979.3 527.7 978.7 527.4C978.6 527.4 978.5 527.3 978.4 527C978.3 526.7 978.3 526.6 978.3 526.4C979.1 525.4 979.8 524.4 980.6 523.6C981.4 522.7 982.2 521.8 983.1 521C983.2 521.1 983.4 521.2 983.5 521.3C983.6 521.4 983.8 521.5 983.9 521.6C983.1 522.6 982.5 523.6 981.9 524.5ZM1015.9 566.6C1015.7 566.9 1015.5 567.1 1015.2 567.4C1015.3 566 1015.4 564.7 1015.5 563.3C1015.6 563.2 1015.6 563.2 1015.7 563.1C1016 562.8 1016.2 562.5 1016.5 562.2C1016.5 562.6 1016.5 563 1016.6 563.4C1016.7 563.8 1016.7 564.3 1016.7 564.6C1016.5 565.5 1016.3 566.1 1015.9 566.6ZM1016.9 561.1V560C1017.2 560 1017.5 560 1017.8 560C1017.5 560.4 1017.3 560.7 1016.9 561.1ZM1021.6 561C1021.5 560.7 1021.3 560.6 1021 560.4C1020.7 560.3 1020.7 560.1 1020.8 560C1020.9 559.7 1021.1 559.5 1021.2 559.1C1021.3 558.8 1021.5 558.4 1021.8 558.1C1021.9 558.2 1022.2 558.4 1022.7 558.7L1021.6 561ZM1022 503.7C1022 503.3 1022 502.9 1022.2 502.5C1022.8 501.2 1023.3 500.3 1023.9 499.9C1023.3 501.2 1022.7 502.4 1022 503.7ZM1024.3 551.4C1024.4 551.1 1024.5 550.8 1024.6 550.6C1024.8 550.7 1025.1 550.8 1025.4 551C1025 551.1 1024.7 551.2 1024.3 551.4ZM1048.4 468C1048.5 468 1048.6 467.9 1048.7 467.9C1048.7 468 1048.7 468.1 1048.7 468.1C1048.6 468 1048.5 468 1048.4 468Z" fill="black"/>
</svg>
