<svg width="1440" height="1024" viewBox="0 0 1440 1024" fill="none" xmlns="http://www.w3.org/2000/svg">
<path d="M335.3 505.6C335.3 478.6 349.6 458.2 362.3 445.9H362.7V519.2H386.2V449.4C389.5 450.1 392.8 450.9 395.2 451.4V519.2H399.2V452C403.2 452.9 408 453.8 413.5 453.8C426.2 453.8 433.7 447.2 441.8 424.4L438.9 421.8C431.4 431.5 428.1 432.6 424.4 432.6C392.8 432.6 374.3 422.7 346.6 422.7C318.7 422.7 301.1 435.7 293.4 485.5L297.6 487C309.9 451.9 325.5 444.6 340.7 444.6C347.5 444.6 353.2 445 358.7 445.5C330.8 460.2 308.8 484.6 308.8 517.3C308.8 517.9 308.8 518.6 308.8 519.2H336C335.6 514.9 335.3 510.4 335.3 505.6Z" fill="white"/>
<path d="M395.2 569.3C376.1 569.1 361.2 563.6 350.8 552.8C363.1 544.2 386.2 528.6 386.2 528.6V526.7H362.6C362.2 537.1 360 541.4 355.6 544.6L348.1 549.9C343.2 543.7 339.5 535.9 337.4 526.7H309.3C313.4 565.2 342.6 589.8 381.3 589.8C412.3 589.8 429.4 576 440.8 559.7L438.6 556.2C430.3 562.8 414.2 568.7 399.1 569.2V526.7H395.1V569.3H395.2Z" fill="white"/>
<path d="M450.8 561.6C450.8 568.2 449.3 571 447.1 572.1V573C451.5 576.1 459.6 582.2 464.9 586.6C468.4 582.6 476.5 575.6 480.9 571.9V571.5C478.7 570 475 567.5 473.4 566V526.8H450.8V561.6Z" fill="white"/>
<path d="M492.3 572.6C492.3 593 487.5 602.3 476 611.5L479.5 613C508.7 600.7 514.9 585.1 514.9 565.8V526.8H492.3V572.6V572.6Z" fill="white"/>
<path d="M473.4 479.3L480.4 473.8C485.7 477.1 489 478.9 492.3 481V519.1H515V483.6C515 478.5 515.2 475.3 518.1 473.5V472.8C510 467.5 500.5 461.8 493.7 457C488.2 461.8 479.2 470 473.5 474.4V426.1C473.5 418.4 475 414.5 477 411.4L476.3 411C466.9 413.9 462.5 420.4 459.2 427.7H458.8C457.3 423.3 452.6 419.6 449.6 418.7L448.7 419.1C450.5 421.5 450.9 425 450.9 430.3V519.2H473.5V479.3H473.4Z" fill="white"/>
<path d="M597.1 499.5C590.9 489.6 579.5 467.9 574.5 456.9C561.5 465.2 546.4 471.6 535 474.7V519.2H562.3C574.4 512.7 590.1 504.7 597.1 499.5ZM557.6 471.6L558.7 471.4C562.4 479.7 572.1 496.4 577.6 505.4C573 508.5 564.4 512.6 557.6 515.9V471.6Z" fill="white"/>
<path d="M534.9 553.7C534.9 560.5 533.8 562.5 531.2 564.5V565.4C542.4 570.9 559.8 580.8 569.2 586.7C574.7 580.5 585.2 570 590.3 565.2L587 561.7L585 563.7C583.5 565.2 581.9 566.1 580.4 566.1C576.4 566.1 571 563.9 557.6 555.3V526.9H535V553.7H534.9Z" fill="white"/>
<path d="M765.4 535.9C765.4 548.4 758.6 556.3 750.2 565.6C730.2 556.2 711.8 551.1 697 551.1C676.6 551.1 659.9 572.4 655.9 597.9L662.7 603.6H663.1C663.1 579.7 675.4 575 688.6 575C700.9 575 712.5 580.3 729.7 589.1C746.8 575.3 750.8 571.7 765.9 557.7C777.7 546.8 783.5 537.7 785.5 526.9H764.2C765 529.6 765.4 532.6 765.4 535.9Z" fill="white"/>
<path d="M724.1 511.1C727.6 510.9 731.6 510.9 735.7 510.9C748.2 510.9 756 513.9 760.4 519.1H786.4C786.4 518.4 786.4 517.7 786.4 517C786.4 496.4 771.2 485.6 741.2 483.6C754.6 460.8 772.2 435.9 782.1 428.7L779 423.2H778.6C774.4 426.9 769.4 432.9 766.3 437C753.6 431.3 736.4 425.1 718.2 421.2C690.3 434.8 670.1 450.6 670.1 472.8C670.1 501.6 690.1 511.5 717.3 511.5C715.8 514.1 713.6 516.7 711 519.1H719.1C720.8 516.8 722.5 514.1 724.1 511.1ZM687.6 457.1C687.6 448.3 692 441.7 700.1 437.3C713.5 439.5 732.8 446.3 750.6 458.8C747.1 464.1 738.3 477.9 735 483.4C731.5 483.6 728.4 483.6 725.3 483.6C696.8 483.7 687.6 476.2 687.6 457.1Z" fill="white"/>
<path d="M825.5 496C825.5 482.4 821.8 475.4 816.1 469.9C808 462 804.2 458.5 804.2 453.4C804.2 448.3 806.2 444.4 809 441.3L807.2 440.4C800.6 444.1 792.5 452.3 792.5 462.1C792.5 468.9 794.5 472.4 797.3 477C801.3 483.4 802.8 486.9 802.8 497V519.1H825.4V496H825.5Z" fill="white"/>
<path d="M908.6 483.4C908.6 476.2 910.1 473.3 912.3 471.8V470.9C907 467.2 899.1 460.8 894.7 457.1C894.7 457.1 883.7 467.6 878.4 472.3V472.5C881 474.3 883.2 475.8 885.9 478V519.2H908.5V483.4H908.6Z" fill="white"/>
<path d="M867.1 482.4C867.1 475.2 869.1 473.2 870.8 472.1V471C865.5 467.3 857.6 460.9 853.2 457.2C849 461.6 841.8 468.2 836.9 472.4V472.6C839.8 474.4 841.7 475.9 844.4 478.1V519.3H867V482.4H867.1Z" fill="white"/>
<path d="M885.9 570.9L885.5 571.1C879.1 567.8 872.1 563.9 867.1 560.6V526.9H844.5V569.8L844 570C838.5 567.1 825.5 559.7 818.1 554.8V554.1C822.5 550.4 825.6 541.1 825.6 534.3V526.7H803V556.7C803 563.1 801.7 565.5 799.3 567V567.9C808.7 573.4 821.3 581.5 828.5 586.6C834.9 581.8 841.7 577.4 848.7 572.8C855.7 576.8 862.8 581.6 869.8 586.6C881.2 578.7 894.2 570.3 908.7 562V526.8H886.1V570.9H885.9Z" fill="white"/>
<path d="M970.7 570.9L970.3 571.3C965.2 568.4 956.7 563.2 951.8 559.7V526.9H929.2V558.4C929.2 563 928.1 565.9 925.5 567V567.9C934.7 573.2 945.9 580.2 955.6 586.8C967.5 578 983.3 568.1 993.4 562.4V526.9H970.8V570.9H970.7Z" fill="white"/>
<path d="M951.8 472.7L952.5 472.5C958.2 475.8 965.7 480.4 970.7 483.9V519.2H993.3V485.9C993.3 479.5 995.1 477.6 997 476V475.1C987.6 470 976.1 462.8 966.9 456.9C955.5 465.2 940.3 474.9 929.1 481.3V519.2H951.7V472.7H951.8Z" fill="white"/>
<path d="M1038.6 479.5L1043.2 474.7C1045.8 481.1 1054 492.9 1059.5 498.9H1060.4C1064.6 493.2 1070.1 485.9 1074.5 481.5C1067.7 474.3 1060.2 463.7 1056 457.1C1049.6 463.3 1047.2 465.9 1039.5 472.5C1034 468.1 1027.4 462.2 1021.3 457.1C1016.2 462.8 1009.7 468.7 1004.6 473.4L1005 474.1C1008.3 474.3 1011.4 475.6 1016 479.2V519.3H1038.6V479.5V479.5Z" fill="white"/>
<path d="M1016 557.7C1016 564.5 1014.7 566.5 1012.3 568.7V569.6C1023.7 575.1 1033.8 580.6 1043.1 586.7C1043.1 586.7 1051.4 578.1 1064.4 565.2L1060.7 561.9L1058.7 564.1C1057.4 565.6 1056.1 567 1054.5 567C1051.2 567 1049.2 566.1 1038.7 559.5V526.9H1016V557.7Z" fill="white"/>
<path d="M1124.1 570.7L1123.7 570.9C1118.9 568.3 1109.6 562.8 1105.2 559.9V526.9H1082.6V559.9C1082.6 564.3 1081.1 566.5 1078.9 567.6V568.5C1087.2 573.1 1102 581.9 1109.2 586.7C1123 576.2 1134.2 569.3 1146.8 562.3V526.8H1124.2V570.7H1124.1Z" fill="white"/>
<path d="M1105.2 470.9L1110 467.8L1124.1 482.7V519.1H1146.7V490.4C1146.7 482.3 1147.8 480.5 1150.4 478.3V477.4C1142.5 471 1107.8 434.8 1107.8 434.8C1095.5 422.5 1094 417.9 1095.3 411.7L1092.9 410.8C1089.6 417 1085.9 425.5 1085.9 432.1C1085.9 441.3 1088.1 443.7 1098.6 455.4L1106.5 464C1099.3 468.8 1087.4 475.9 1082.6 478.5V519H1105.2V470.9V470.9Z" fill="white"/>
</svg>
